solid cube_subd5
  facet normal 1.000000 0.000000 0.000000
    outer loop
      vertex 500.000000 500.000000 500.000000
      vertex 500.000000 300.000000 500.000000
      vertex 500.000000 500.000000 300.000000
    endloop
  endfacet
  facet normal 1.000000 0.000000 0.000000
    outer loop
      vertex 500.000000 500.000000 300.000000
      vertex 500.000000 300.000000 500.000000
      vertex 500.000000 300.000000 300.000000
    endloop
  endfacet
  facet normal 1.000000 0.000000 0.000000
    outer loop
      vertex 500.000000 300.000000 500.000000
      vertex 500.000000 100.000000 500.000000
      vertex 500.000000 300.000000 300.000000
    endloop
  endfacet
  facet normal 1.000000 0.000000 0.000000
    outer loop
      vertex 500.000000 300.000000 300.000000
      vertex 500.000000 100.000000 500.000000
      vertex 500.000000 100.000000 300.000000
    endloop
  endfacet
  facet normal 1.000000 0.000000 0.000000
    outer loop
      vertex 500.000000 100.000000 500.000000
      vertex 500.000000 -100.000000 500.000000
      vertex 500.000000 100.000000 300.000000
    endloop
  endfacet
  facet normal 1.000000 0.000000 0.000000
    outer loop
      vertex 500.000000 100.000000 300.000000
      vertex 500.000000 -100.000000 500.000000
      vertex 500.000000 -100.000000 300.000000
    endloop
  endfacet
  facet normal 1.000000 0.000000 0.000000
    outer loop
      vertex 500.000000 -100.000000 500.000000
      vertex 500.000000 -300.000000 500.000000
      vertex 500.000000 -100.000000 300.000000
    endloop
  endfacet
  facet normal 1.000000 0.000000 0.000000
    outer loop
      vertex 500.000000 -100.000000 300.000000
      vertex 500.000000 -300.000000 500.000000
      vertex 500.000000 -300.000000 300.000000
    endloop
  endfacet
  facet normal 1.000000 0.000000 0.000000
    outer loop
      vertex 500.000000 -300.000000 500.000000
      vertex 500.000000 -500.000000 500.000000
      vertex 500.000000 -300.000000 300.000000
    endloop
  endfacet
  facet normal 1.000000 0.000000 0.000000
    outer loop
      vertex 500.000000 -300.000000 300.000000
      vertex 500.000000 -500.000000 500.000000
      vertex 500.000000 -500.000000 300.000000
    endloop
  endfacet
  facet normal 1.000000 0.000000 0.000000
    outer loop
      vertex 500.000000 500.000000 300.000000
      vertex 500.000000 300.000000 300.000000
      vertex 500.000000 500.000000 100.000000
    endloop
  endfacet
  facet normal 1.000000 0.000000 0.000000
    outer loop
      vertex 500.000000 500.000000 100.000000
      vertex 500.000000 300.000000 300.000000
      vertex 500.000000 300.000000 100.000000
    endloop
  endfacet
  facet normal 1.000000 0.000000 0.000000
    outer loop
      vertex 500.000000 300.000000 300.000000
      vertex 500.000000 100.000000 300.000000
      vertex 500.000000 300.000000 100.000000
    endloop
  endfacet
  facet normal 1.000000 0.000000 0.000000
    outer loop
      vertex 500.000000 300.000000 100.000000
      vertex 500.000000 100.000000 300.000000
      vertex 500.000000 100.000000 100.000000
    endloop
  endfacet
  facet normal 1.000000 0.000000 0.000000
    outer loop
      vertex 500.000000 100.000000 300.000000
      vertex 500.000000 -100.000000 300.000000
      vertex 500.000000 100.000000 100.000000
    endloop
  endfacet
  facet normal 1.000000 0.000000 0.000000
    outer loop
      vertex 500.000000 100.000000 100.000000
      vertex 500.000000 -100.000000 300.000000
      vertex 500.000000 -100.000000 100.000000
    endloop
  endfacet
  facet normal 1.000000 0.000000 0.000000
    outer loop
      vertex 500.000000 -100.000000 300.000000
      vertex 500.000000 -300.000000 300.000000
      vertex 500.000000 -100.000000 100.000000
    endloop
  endfacet
  facet normal 1.000000 0.000000 0.000000
    outer loop
      vertex 500.000000 -100.000000 100.000000
      vertex 500.000000 -300.000000 300.000000
      vertex 500.000000 -300.000000 100.000000
    endloop
  endfacet
  facet normal 1.000000 0.000000 0.000000
    outer loop
      vertex 500.000000 -300.000000 300.000000
      vertex 500.000000 -500.000000 300.000000
      vertex 500.000000 -300.000000 100.000000
    endloop
  endfacet
  facet normal 1.000000 0.000000 0.000000
    outer loop
      vertex 500.000000 -300.000000 100.000000
      vertex 500.000000 -500.000000 300.000000
      vertex 500.000000 -500.000000 100.000000
    endloop
  endfacet
  facet normal 1.000000 0.000000 0.000000
    outer loop
      vertex 500.000000 500.000000 100.000000
      vertex 500.000000 300.000000 100.000000
      vertex 500.000000 500.000000 -100.000000
    endloop
  endfacet
  facet normal 1.000000 0.000000 0.000000
    outer loop
      vertex 500.000000 500.000000 -100.000000
      vertex 500.000000 300.000000 100.000000
      vertex 500.000000 300.000000 -100.000000
    endloop
  endfacet
  facet normal 1.000000 0.000000 0.000000
    outer loop
      vertex 500.000000 300.000000 100.000000
      vertex 500.000000 100.000000 100.000000
      vertex 500.000000 300.000000 -100.000000
    endloop
  endfacet
  facet normal 1.000000 0.000000 0.000000
    outer loop
      vertex 500.000000 300.000000 -100.000000
      vertex 500.000000 100.000000 100.000000
      vertex 500.000000 100.000000 -100.000000
    endloop
  endfacet
  facet normal 1.000000 0.000000 0.000000
    outer loop
      vertex 500.000000 100.000000 100.000000
      vertex 500.000000 -100.000000 100.000000
      vertex 500.000000 100.000000 -100.000000
    endloop
  endfacet
  facet normal 1.000000 0.000000 0.000000
    outer loop
      vertex 500.000000 100.000000 -100.000000
      vertex 500.000000 -100.000000 100.000000
      vertex 500.000000 -100.000000 -100.000000
    endloop
  endfacet
  facet normal 1.000000 0.000000 0.000000
    outer loop
      vertex 500.000000 -100.000000 100.000000
      vertex 500.000000 -300.000000 100.000000
      vertex 500.000000 -100.000000 -100.000000
    endloop
  endfacet
  facet normal 1.000000 0.000000 0.000000
    outer loop
      vertex 500.000000 -100.000000 -100.000000
      vertex 500.000000 -300.000000 100.000000
      vertex 500.000000 -300.000000 -100.000000
    endloop
  endfacet
  facet normal 1.000000 0.000000 0.000000
    outer loop
      vertex 500.000000 -300.000000 100.000000
      vertex 500.000000 -500.000000 100.000000
      vertex 500.000000 -300.000000 -100.000000
    endloop
  endfacet
  facet normal 1.000000 0.000000 0.000000
    outer loop
      vertex 500.000000 -300.000000 -100.000000
      vertex 500.000000 -500.000000 100.000000
      vertex 500.000000 -500.000000 -100.000000
    endloop
  endfacet
  facet normal 1.000000 0.000000 0.000000
    outer loop
      vertex 500.000000 500.000000 -100.000000
      vertex 500.000000 300.000000 -100.000000
      vertex 500.000000 500.000000 -300.000000
    endloop
  endfacet
  facet normal 1.000000 0.000000 0.000000
    outer loop
      vertex 500.000000 500.000000 -300.000000
      vertex 500.000000 300.000000 -100.000000
      vertex 500.000000 300.000000 -300.000000
    endloop
  endfacet
  facet normal 1.000000 0.000000 0.000000
    outer loop
      vertex 500.000000 300.000000 -100.000000
      vertex 500.000000 100.000000 -100.000000
      vertex 500.000000 300.000000 -300.000000
    endloop
  endfacet
  facet normal 1.000000 0.000000 0.000000
    outer loop
      vertex 500.000000 300.000000 -300.000000
      vertex 500.000000 100.000000 -100.000000
      vertex 500.000000 100.000000 -300.000000
    endloop
  endfacet
  facet normal 1.000000 0.000000 0.000000
    outer loop
      vertex 500.000000 100.000000 -100.000000
      vertex 500.000000 -100.000000 -100.000000
      vertex 500.000000 100.000000 -300.000000
    endloop
  endfacet
  facet normal 1.000000 0.000000 0.000000
    outer loop
      vertex 500.000000 100.000000 -300.000000
      vertex 500.000000 -100.000000 -100.000000
      vertex 500.000000 -100.000000 -300.000000
    endloop
  endfacet
  facet normal 1.000000 0.000000 0.000000
    outer loop
      vertex 500.000000 -100.000000 -100.000000
      vertex 500.000000 -300.000000 -100.000000
      vertex 500.000000 -100.000000 -300.000000
    endloop
  endfacet
  facet normal 1.000000 0.000000 0.000000
    outer loop
      vertex 500.000000 -100.000000 -300.000000
      vertex 500.000000 -300.000000 -100.000000
      vertex 500.000000 -300.000000 -300.000000
    endloop
  endfacet
  facet normal 1.000000 0.000000 0.000000
    outer loop
      vertex 500.000000 -300.000000 -100.000000
      vertex 500.000000 -500.000000 -100.000000
      vertex 500.000000 -300.000000 -300.000000
    endloop
  endfacet
  facet normal 1.000000 0.000000 0.000000
    outer loop
      vertex 500.000000 -300.000000 -300.000000
      vertex 500.000000 -500.000000 -100.000000
      vertex 500.000000 -500.000000 -300.000000
    endloop
  endfacet
  facet normal 1.000000 0.000000 0.000000
    outer loop
      vertex 500.000000 500.000000 -300.000000
      vertex 500.000000 300.000000 -300.000000
      vertex 500.000000 500.000000 -500.000000
    endloop
  endfacet
  facet normal 1.000000 0.000000 0.000000
    outer loop
      vertex 500.000000 500.000000 -500.000000
      vertex 500.000000 300.000000 -300.000000
      vertex 500.000000 300.000000 -500.000000
    endloop
  endfacet
  facet normal 1.000000 0.000000 0.000000
    outer loop
      vertex 500.000000 300.000000 -300.000000
      vertex 500.000000 100.000000 -300.000000
      vertex 500.000000 300.000000 -500.000000
    endloop
  endfacet
  facet normal 1.000000 0.000000 0.000000
    outer loop
      vertex 500.000000 300.000000 -500.000000
      vertex 500.000000 100.000000 -300.000000
      vertex 500.000000 100.000000 -500.000000
    endloop
  endfacet
  facet normal 1.000000 0.000000 0.000000
    outer loop
      vertex 500.000000 100.000000 -300.000000
      vertex 500.000000 -100.000000 -300.000000
      vertex 500.000000 100.000000 -500.000000
    endloop
  endfacet
  facet normal 1.000000 0.000000 0.000000
    outer loop
      vertex 500.000000 100.000000 -500.000000
      vertex 500.000000 -100.000000 -300.000000
      vertex 500.000000 -100.000000 -500.000000
    endloop
  endfacet
  facet normal 1.000000 0.000000 0.000000
    outer loop
      vertex 500.000000 -100.000000 -300.000000
      vertex 500.000000 -300.000000 -300.000000
      vertex 500.000000 -100.000000 -500.000000
    endloop
  endfacet
  facet normal 1.000000 0.000000 0.000000
    outer loop
      vertex 500.000000 -100.000000 -500.000000
      vertex 500.000000 -300.000000 -300.000000
      vertex 500.000000 -300.000000 -500.000000
    endloop
  endfacet
  facet normal 1.000000 0.000000 0.000000
    outer loop
      vertex 500.000000 -300.000000 -300.000000
      vertex 500.000000 -500.000000 -300.000000
      vertex 500.000000 -300.000000 -500.000000
    endloop
  endfacet
  facet normal 1.000000 0.000000 0.000000
    outer loop
      vertex 500.000000 -300.000000 -500.000000
      vertex 500.000000 -500.000000 -300.000000
      vertex 500.000000 -500.000000 -500.000000
    endloop
  endfacet
  facet normal -1.000000 0.000000 0.000000
    outer loop
      vertex -500.000000 500.000000 -500.000000
      vertex -500.000000 300.000000 -500.000000
      vertex -500.000000 500.000000 -300.000000
    endloop
  endfacet
  facet normal -1.000000 0.000000 0.000000
    outer loop
      vertex -500.000000 500.000000 -300.000000
      vertex -500.000000 300.000000 -500.000000
      vertex -500.000000 300.000000 -300.000000
    endloop
  endfacet
  facet normal -1.000000 0.000000 0.000000
    outer loop
      vertex -500.000000 300.000000 -500.000000
      vertex -500.000000 100.000000 -500.000000
      vertex -500.000000 300.000000 -300.000000
    endloop
  endfacet
  facet normal -1.000000 0.000000 0.000000
    outer loop
      vertex -500.000000 300.000000 -300.000000
      vertex -500.000000 100.000000 -500.000000
      vertex -500.000000 100.000000 -300.000000
    endloop
  endfacet
  facet normal -1.000000 0.000000 0.000000
    outer loop
      vertex -500.000000 100.000000 -500.000000
      vertex -500.000000 -100.000000 -500.000000
      vertex -500.000000 100.000000 -300.000000
    endloop
  endfacet
  facet normal -1.000000 0.000000 0.000000
    outer loop
      vertex -500.000000 100.000000 -300.000000
      vertex -500.000000 -100.000000 -500.000000
      vertex -500.000000 -100.000000 -300.000000
    endloop
  endfacet
  facet normal -1.000000 0.000000 0.000000
    outer loop
      vertex -500.000000 -100.000000 -500.000000
      vertex -500.000000 -300.000000 -500.000000
      vertex -500.000000 -100.000000 -300.000000
    endloop
  endfacet
  facet normal -1.000000 0.000000 0.000000
    outer loop
      vertex -500.000000 -100.000000 -300.000000
      vertex -500.000000 -300.000000 -500.000000
      vertex -500.000000 -300.000000 -300.000000
    endloop
  endfacet
  facet normal -1.000000 0.000000 0.000000
    outer loop
      vertex -500.000000 -300.000000 -500.000000
      vertex -500.000000 -500.000000 -500.000000
      vertex -500.000000 -300.000000 -300.000000
    endloop
  endfacet
  facet normal -1.000000 0.000000 0.000000
    outer loop
      vertex -500.000000 -300.000000 -300.000000
      vertex -500.000000 -500.000000 -500.000000
      vertex -500.000000 -500.000000 -300.000000
    endloop
  endfacet
  facet normal -1.000000 0.000000 0.000000
    outer loop
      vertex -500.000000 500.000000 -300.000000
      vertex -500.000000 300.000000 -300.000000
      vertex -500.000000 500.000000 -100.000000
    endloop
  endfacet
  facet normal -1.000000 0.000000 0.000000
    outer loop
      vertex -500.000000 500.000000 -100.000000
      vertex -500.000000 300.000000 -300.000000
      vertex -500.000000 300.000000 -100.000000
    endloop
  endfacet
  facet normal -1.000000 0.000000 0.000000
    outer loop
      vertex -500.000000 300.000000 -300.000000
      vertex -500.000000 100.000000 -300.000000
      vertex -500.000000 300.000000 -100.000000
    endloop
  endfacet
  facet normal -1.000000 0.000000 0.000000
    outer loop
      vertex -500.000000 300.000000 -100.000000
      vertex -500.000000 100.000000 -300.000000
      vertex -500.000000 100.000000 -100.000000
    endloop
  endfacet
  facet normal -1.000000 0.000000 0.000000
    outer loop
      vertex -500.000000 100.000000 -300.000000
      vertex -500.000000 -100.000000 -300.000000
      vertex -500.000000 100.000000 -100.000000
    endloop
  endfacet
  facet normal -1.000000 0.000000 0.000000
    outer loop
      vertex -500.000000 100.000000 -100.000000
      vertex -500.000000 -100.000000 -300.000000
      vertex -500.000000 -100.000000 -100.000000
    endloop
  endfacet
  facet normal -1.000000 0.000000 0.000000
    outer loop
      vertex -500.000000 -100.000000 -300.000000
      vertex -500.000000 -300.000000 -300.000000
      vertex -500.000000 -100.000000 -100.000000
    endloop
  endfacet
  facet normal -1.000000 0.000000 0.000000
    outer loop
      vertex -500.000000 -100.000000 -100.000000
      vertex -500.000000 -300.000000 -300.000000
      vertex -500.000000 -300.000000 -100.000000
    endloop
  endfacet
  facet normal -1.000000 0.000000 0.000000
    outer loop
      vertex -500.000000 -300.000000 -300.000000
      vertex -500.000000 -500.000000 -300.000000
      vertex -500.000000 -300.000000 -100.000000
    endloop
  endfacet
  facet normal -1.000000 0.000000 0.000000
    outer loop
      vertex -500.000000 -300.000000 -100.000000
      vertex -500.000000 -500.000000 -300.000000
      vertex -500.000000 -500.000000 -100.000000
    endloop
  endfacet
  facet normal -1.000000 0.000000 0.000000
    outer loop
      vertex -500.000000 500.000000 -100.000000
      vertex -500.000000 300.000000 -100.000000
      vertex -500.000000 500.000000 100.000000
    endloop
  endfacet
  facet normal -1.000000 0.000000 0.000000
    outer loop
      vertex -500.000000 500.000000 100.000000
      vertex -500.000000 300.000000 -100.000000
      vertex -500.000000 300.000000 100.000000
    endloop
  endfacet
  facet normal -1.000000 0.000000 0.000000
    outer loop
      vertex -500.000000 300.000000 -100.000000
      vertex -500.000000 100.000000 -100.000000
      vertex -500.000000 300.000000 100.000000
    endloop
  endfacet
  facet normal -1.000000 0.000000 0.000000
    outer loop
      vertex -500.000000 300.000000 100.000000
      vertex -500.000000 100.000000 -100.000000
      vertex -500.000000 100.000000 100.000000
    endloop
  endfacet
  facet normal -1.000000 0.000000 0.000000
    outer loop
      vertex -500.000000 100.000000 -100.000000
      vertex -500.000000 -100.000000 -100.000000
      vertex -500.000000 100.000000 100.000000
    endloop
  endfacet
  facet normal -1.000000 0.000000 0.000000
    outer loop
      vertex -500.000000 100.000000 100.000000
      vertex -500.000000 -100.000000 -100.000000
      vertex -500.000000 -100.000000 100.000000
    endloop
  endfacet
  facet normal -1.000000 0.000000 0.000000
    outer loop
      vertex -500.000000 -100.000000 -100.000000
      vertex -500.000000 -300.000000 -100.000000
      vertex -500.000000 -100.000000 100.000000
    endloop
  endfacet
  facet normal -1.000000 0.000000 0.000000
    outer loop
      vertex -500.000000 -100.000000 100.000000
      vertex -500.000000 -300.000000 -100.000000
      vertex -500.000000 -300.000000 100.000000
    endloop
  endfacet
  facet normal -1.000000 0.000000 0.000000
    outer loop
      vertex -500.000000 -300.000000 -100.000000
      vertex -500.000000 -500.000000 -100.000000
      vertex -500.000000 -300.000000 100.000000
    endloop
  endfacet
  facet normal -1.000000 0.000000 0.000000
    outer loop
      vertex -500.000000 -300.000000 100.000000
      vertex -500.000000 -500.000000 -100.000000
      vertex -500.000000 -500.000000 100.000000
    endloop
  endfacet
  facet normal -1.000000 0.000000 0.000000
    outer loop
      vertex -500.000000 500.000000 100.000000
      vertex -500.000000 300.000000 100.000000
      vertex -500.000000 500.000000 300.000000
    endloop
  endfacet
  facet normal -1.000000 0.000000 0.000000
    outer loop
      vertex -500.000000 500.000000 300.000000
      vertex -500.000000 300.000000 100.000000
      vertex -500.000000 300.000000 300.000000
    endloop
  endfacet
  facet normal -1.000000 0.000000 0.000000
    outer loop
      vertex -500.000000 300.000000 100.000000
      vertex -500.000000 100.000000 100.000000
      vertex -500.000000 300.000000 300.000000
    endloop
  endfacet
  facet normal -1.000000 0.000000 0.000000
    outer loop
      vertex -500.000000 300.000000 300.000000
      vertex -500.000000 100.000000 100.000000
      vertex -500.000000 100.000000 300.000000
    endloop
  endfacet
  facet normal -1.000000 0.000000 0.000000
    outer loop
      vertex -500.000000 100.000000 100.000000
      vertex -500.000000 -100.000000 100.000000
      vertex -500.000000 100.000000 300.000000
    endloop
  endfacet
  facet normal -1.000000 0.000000 0.000000
    outer loop
      vertex -500.000000 100.000000 300.000000
      vertex -500.000000 -100.000000 100.000000
      vertex -500.000000 -100.000000 300.000000
    endloop
  endfacet
  facet normal -1.000000 0.000000 0.000000
    outer loop
      vertex -500.000000 -100.000000 100.000000
      vertex -500.000000 -300.000000 100.000000
      vertex -500.000000 -100.000000 300.000000
    endloop
  endfacet
  facet normal -1.000000 0.000000 0.000000
    outer loop
      vertex -500.000000 -100.000000 300.000000
      vertex -500.000000 -300.000000 100.000000
      vertex -500.000000 -300.000000 300.000000
    endloop
  endfacet
  facet normal -1.000000 0.000000 0.000000
    outer loop
      vertex -500.000000 -300.000000 100.000000
      vertex -500.000000 -500.000000 100.000000
      vertex -500.000000 -300.000000 300.000000
    endloop
  endfacet
  facet normal -1.000000 0.000000 0.000000
    outer loop
      vertex -500.000000 -300.000000 300.000000
      vertex -500.000000 -500.000000 100.000000
      vertex -500.000000 -500.000000 300.000000
    endloop
  endfacet
  facet normal -1.000000 0.000000 0.000000
    outer loop
      vertex -500.000000 500.000000 300.000000
      vertex -500.000000 300.000000 300.000000
      vertex -500.000000 500.000000 500.000000
    endloop
  endfacet
  facet normal -1.000000 0.000000 0.000000
    outer loop
      vertex -500.000000 500.000000 500.000000
      vertex -500.000000 300.000000 300.000000
      vertex -500.000000 300.000000 500.000000
    endloop
  endfacet
  facet normal -1.000000 0.000000 0.000000
    outer loop
      vertex -500.000000 300.000000 300.000000
      vertex -500.000000 100.000000 300.000000
      vertex -500.000000 300.000000 500.000000
    endloop
  endfacet
  facet normal -1.000000 0.000000 0.000000
    outer loop
      vertex -500.000000 300.000000 500.000000
      vertex -500.000000 100.000000 300.000000
      vertex -500.000000 100.000000 500.000000
    endloop
  endfacet
  facet normal -1.000000 0.000000 0.000000
    outer loop
      vertex -500.000000 100.000000 300.000000
      vertex -500.000000 -100.000000 300.000000
      vertex -500.000000 100.000000 500.000000
    endloop
  endfacet
  facet normal -1.000000 0.000000 0.000000
    outer loop
      vertex -500.000000 100.000000 500.000000
      vertex -500.000000 -100.000000 300.000000
      vertex -500.000000 -100.000000 500.000000
    endloop
  endfacet
  facet normal -1.000000 0.000000 0.000000
    outer loop
      vertex -500.000000 -100.000000 300.000000
      vertex -500.000000 -300.000000 300.000000
      vertex -500.000000 -100.000000 500.000000
    endloop
  endfacet
  facet normal -1.000000 0.000000 0.000000
    outer loop
      vertex -500.000000 -100.000000 500.000000
      vertex -500.000000 -300.000000 300.000000
      vertex -500.000000 -300.000000 500.000000
    endloop
  endfacet
  facet normal -1.000000 0.000000 0.000000
    outer loop
      vertex -500.000000 -300.000000 300.000000
      vertex -500.000000 -500.000000 300.000000
      vertex -500.000000 -300.000000 500.000000
    endloop
  endfacet
  facet normal -1.000000 0.000000 0.000000
    outer loop
      vertex -500.000000 -300.000000 500.000000
      vertex -500.000000 -500.000000 300.000000
      vertex -500.000000 -500.000000 500.000000
    endloop
  endfacet
  facet normal 0.000000 1.000000 0.000000
    outer loop
      vertex -500.000000 500.000000 500.000000
      vertex -300.000000 500.000000 500.000000
      vertex -500.000000 500.000000 300.000000
    endloop
  endfacet
  facet normal 0.000000 1.000000 0.000000
    outer loop
      vertex -300.000000 500.000000 500.000000
      vertex -300.000000 500.000000 300.000000
      vertex -500.000000 500.000000 300.000000
    endloop
  endfacet
  facet normal 0.000000 1.000000 0.000000
    outer loop
      vertex -500.000000 500.000000 300.000000
      vertex -300.000000 500.000000 300.000000
      vertex -500.000000 500.000000 100.000000
    endloop
  endfacet
  facet normal 0.000000 1.000000 0.000000
    outer loop
      vertex -300.000000 500.000000 300.000000
      vertex -300.000000 500.000000 100.000000
      vertex -500.000000 500.000000 100.000000
    endloop
  endfacet
  facet normal 0.000000 1.000000 0.000000
    outer loop
      vertex -500.000000 500.000000 100.000000
      vertex -300.000000 500.000000 100.000000
      vertex -500.000000 500.000000 -100.000000
    endloop
  endfacet
  facet normal 0.000000 1.000000 0.000000
    outer loop
      vertex -300.000000 500.000000 100.000000
      vertex -300.000000 500.000000 -100.000000
      vertex -500.000000 500.000000 -100.000000
    endloop
  endfacet
  facet normal 0.000000 1.000000 0.000000
    outer loop
      vertex -500.000000 500.000000 -100.000000
      vertex -300.000000 500.000000 -100.000000
      vertex -500.000000 500.000000 -300.000000
    endloop
  endfacet
  facet normal 0.000000 1.000000 0.000000
    outer loop
      vertex -300.000000 500.000000 -100.000000
      vertex -300.000000 500.000000 -300.000000
      vertex -500.000000 500.000000 -300.000000
    endloop
  endfacet
  facet normal 0.000000 1.000000 0.000000
    outer loop
      vertex -500.000000 500.000000 -300.000000
      vertex -300.000000 500.000000 -300.000000
      vertex -500.000000 500.000000 -500.000000
    endloop
  endfacet
  facet normal 0.000000 1.000000 0.000000
    outer loop
      vertex -300.000000 500.000000 -300.000000
      vertex -300.000000 500.000000 -500.000000
      vertex -500.000000 500.000000 -500.000000
    endloop
  endfacet
  facet normal 0.000000 1.000000 0.000000
    outer loop
      vertex -300.000000 500.000000 500.000000
      vertex -100.000000 500.000000 500.000000
      vertex -300.000000 500.000000 300.000000
    endloop
  endfacet
  facet normal 0.000000 1.000000 0.000000
    outer loop
      vertex -100.000000 500.000000 500.000000
      vertex -100.000000 500.000000 300.000000
      vertex -300.000000 500.000000 300.000000
    endloop
  endfacet
  facet normal 0.000000 1.000000 0.000000
    outer loop
      vertex -300.000000 500.000000 300.000000
      vertex -100.000000 500.000000 300.000000
      vertex -300.000000 500.000000 100.000000
    endloop
  endfacet
  facet normal 0.000000 1.000000 0.000000
    outer loop
      vertex -100.000000 500.000000 300.000000
      vertex -100.000000 500.000000 100.000000
      vertex -300.000000 500.000000 100.000000
    endloop
  endfacet
  facet normal 0.000000 1.000000 0.000000
    outer loop
      vertex -300.000000 500.000000 100.000000
      vertex -100.000000 500.000000 100.000000
      vertex -300.000000 500.000000 -100.000000
    endloop
  endfacet
  facet normal 0.000000 1.000000 0.000000
    outer loop
      vertex -100.000000 500.000000 100.000000
      vertex -100.000000 500.000000 -100.000000
      vertex -300.000000 500.000000 -100.000000
    endloop
  endfacet
  facet normal 0.000000 1.000000 0.000000
    outer loop
      vertex -300.000000 500.000000 -100.000000
      vertex -100.000000 500.000000 -100.000000
      vertex -300.000000 500.000000 -300.000000
    endloop
  endfacet
  facet normal 0.000000 1.000000 0.000000
    outer loop
      vertex -100.000000 500.000000 -100.000000
      vertex -100.000000 500.000000 -300.000000
      vertex -300.000000 500.000000 -300.000000
    endloop
  endfacet
  facet normal 0.000000 1.000000 0.000000
    outer loop
      vertex -300.000000 500.000000 -300.000000
      vertex -100.000000 500.000000 -300.000000
      vertex -300.000000 500.000000 -500.000000
    endloop
  endfacet
  facet normal 0.000000 1.000000 0.000000
    outer loop
      vertex -100.000000 500.000000 -300.000000
      vertex -100.000000 500.000000 -500.000000
      vertex -300.000000 500.000000 -500.000000
    endloop
  endfacet
  facet normal 0.000000 1.000000 0.000000
    outer loop
      vertex -100.000000 500.000000 500.000000
      vertex 100.000000 500.000000 500.000000
      vertex -100.000000 500.000000 300.000000
    endloop
  endfacet
  facet normal 0.000000 1.000000 0.000000
    outer loop
      vertex 100.000000 500.000000 500.000000
      vertex 100.000000 500.000000 300.000000
      vertex -100.000000 500.000000 300.000000
    endloop
  endfacet
  facet normal 0.000000 1.000000 0.000000
    outer loop
      vertex -100.000000 500.000000 300.000000
      vertex 100.000000 500.000000 300.000000
      vertex -100.000000 500.000000 100.000000
    endloop
  endfacet
  facet normal 0.000000 1.000000 0.000000
    outer loop
      vertex 100.000000 500.000000 300.000000
      vertex 100.000000 500.000000 100.000000
      vertex -100.000000 500.000000 100.000000
    endloop
  endfacet
  facet normal 0.000000 1.000000 0.000000
    outer loop
      vertex -100.000000 500.000000 100.000000
      vertex 100.000000 500.000000 100.000000
      vertex -100.000000 500.000000 -100.000000
    endloop
  endfacet
  facet normal 0.000000 1.000000 0.000000
    outer loop
      vertex 100.000000 500.000000 100.000000
      vertex 100.000000 500.000000 -100.000000
      vertex -100.000000 500.000000 -100.000000
    endloop
  endfacet
  facet normal 0.000000 1.000000 0.000000
    outer loop
      vertex -100.000000 500.000000 -100.000000
      vertex 100.000000 500.000000 -100.000000
      vertex -100.000000 500.000000 -300.000000
    endloop
  endfacet
  facet normal 0.000000 1.000000 0.000000
    outer loop
      vertex 100.000000 500.000000 -100.000000
      vertex 100.000000 500.000000 -300.000000
      vertex -100.000000 500.000000 -300.000000
    endloop
  endfacet
  facet normal 0.000000 1.000000 0.000000
    outer loop
      vertex -100.000000 500.000000 -300.000000
      vertex 100.000000 500.000000 -300.000000
      vertex -100.000000 500.000000 -500.000000
    endloop
  endfacet
  facet normal 0.000000 1.000000 0.000000
    outer loop
      vertex 100.000000 500.000000 -300.000000
      vertex 100.000000 500.000000 -500.000000
      vertex -100.000000 500.000000 -500.000000
    endloop
  endfacet
  facet normal 0.000000 1.000000 0.000000
    outer loop
      vertex 100.000000 500.000000 500.000000
      vertex 300.000000 500.000000 500.000000
      vertex 100.000000 500.000000 300.000000
    endloop
  endfacet
  facet normal 0.000000 1.000000 0.000000
    outer loop
      vertex 300.000000 500.000000 500.000000
      vertex 300.000000 500.000000 300.000000
      vertex 100.000000 500.000000 300.000000
    endloop
  endfacet
  facet normal 0.000000 1.000000 0.000000
    outer loop
      vertex 100.000000 500.000000 300.000000
      vertex 300.000000 500.000000 300.000000
      vertex 100.000000 500.000000 100.000000
    endloop
  endfacet
  facet normal 0.000000 1.000000 0.000000
    outer loop
      vertex 300.000000 500.000000 300.000000
      vertex 300.000000 500.000000 100.000000
      vertex 100.000000 500.000000 100.000000
    endloop
  endfacet
  facet normal 0.000000 1.000000 0.000000
    outer loop
      vertex 100.000000 500.000000 100.000000
      vertex 300.000000 500.000000 100.000000
      vertex 100.000000 500.000000 -100.000000
    endloop
  endfacet
  facet normal 0.000000 1.000000 0.000000
    outer loop
      vertex 300.000000 500.000000 100.000000
      vertex 300.000000 500.000000 -100.000000
      vertex 100.000000 500.000000 -100.000000
    endloop
  endfacet
  facet normal 0.000000 1.000000 0.000000
    outer loop
      vertex 100.000000 500.000000 -100.000000
      vertex 300.000000 500.000000 -100.000000
      vertex 100.000000 500.000000 -300.000000
    endloop
  endfacet
  facet normal 0.000000 1.000000 0.000000
    outer loop
      vertex 300.000000 500.000000 -100.000000
      vertex 300.000000 500.000000 -300.000000
      vertex 100.000000 500.000000 -300.000000
    endloop
  endfacet
  facet normal 0.000000 1.000000 0.000000
    outer loop
      vertex 100.000000 500.000000 -300.000000
      vertex 300.000000 500.000000 -300.000000
      vertex 100.000000 500.000000 -500.000000
    endloop
  endfacet
  facet normal 0.000000 1.000000 0.000000
    outer loop
      vertex 300.000000 500.000000 -300.000000
      vertex 300.000000 500.000000 -500.000000
      vertex 100.000000 500.000000 -500.000000
    endloop
  endfacet
  facet normal 0.000000 1.000000 0.000000
    outer loop
      vertex 300.000000 500.000000 500.000000
      vertex 500.000000 500.000000 500.000000
      vertex 300.000000 500.000000 300.000000
    endloop
  endfacet
  facet normal 0.000000 1.000000 0.000000
    outer loop
      vertex 500.000000 500.000000 500.000000
      vertex 500.000000 500.000000 300.000000
      vertex 300.000000 500.000000 300.000000
    endloop
  endfacet
  facet normal 0.000000 1.000000 0.000000
    outer loop
      vertex 300.000000 500.000000 300.000000
      vertex 500.000000 500.000000 300.000000
      vertex 300.000000 500.000000 100.000000
    endloop
  endfacet
  facet normal 0.000000 1.000000 0.000000
    outer loop
      vertex 500.000000 500.000000 300.000000
      vertex 500.000000 500.000000 100.000000
      vertex 300.000000 500.000000 100.000000
    endloop
  endfacet
  facet normal 0.000000 1.000000 0.000000
    outer loop
      vertex 300.000000 500.000000 100.000000
      vertex 500.000000 500.000000 100.000000
      vertex 300.000000 500.000000 -100.000000
    endloop
  endfacet
  facet normal 0.000000 1.000000 0.000000
    outer loop
      vertex 500.000000 500.000000 100.000000
      vertex 500.000000 500.000000 -100.000000
      vertex 300.000000 500.000000 -100.000000
    endloop
  endfacet
  facet normal 0.000000 1.000000 0.000000
    outer loop
      vertex 300.000000 500.000000 -100.000000
      vertex 500.000000 500.000000 -100.000000
      vertex 300.000000 500.000000 -300.000000
    endloop
  endfacet
  facet normal 0.000000 1.000000 0.000000
    outer loop
      vertex 500.000000 500.000000 -100.000000
      vertex 500.000000 500.000000 -300.000000
      vertex 300.000000 500.000000 -300.000000
    endloop
  endfacet
  facet normal 0.000000 1.000000 0.000000
    outer loop
      vertex 300.000000 500.000000 -300.000000
      vertex 500.000000 500.000000 -300.000000
      vertex 300.000000 500.000000 -500.000000
    endloop
  endfacet
  facet normal 0.000000 1.000000 0.000000
    outer loop
      vertex 500.000000 500.000000 -300.000000
      vertex 500.000000 500.000000 -500.000000
      vertex 300.000000 500.000000 -500.000000
    endloop
  endfacet
  facet normal 0.000000 -1.000000 0.000000
    outer loop
      vertex 500.000000 -500.000000 500.000000
      vertex 300.000000 -500.000000 500.000000
      vertex 500.000000 -500.000000 300.000000
    endloop
  endfacet
  facet normal 0.000000 -1.000000 0.000000
    outer loop
      vertex 300.000000 -500.000000 500.000000
      vertex 300.000000 -500.000000 300.000000
      vertex 500.000000 -500.000000 300.000000
    endloop
  endfacet
  facet normal 0.000000 -1.000000 0.000000
    outer loop
      vertex 500.000000 -500.000000 300.000000
      vertex 300.000000 -500.000000 300.000000
      vertex 500.000000 -500.000000 100.000000
    endloop
  endfacet
  facet normal 0.000000 -1.000000 0.000000
    outer loop
      vertex 300.000000 -500.000000 300.000000
      vertex 300.000000 -500.000000 100.000000
      vertex 500.000000 -500.000000 100.000000
    endloop
  endfacet
  facet normal 0.000000 -1.000000 0.000000
    outer loop
      vertex 500.000000 -500.000000 100.000000
      vertex 300.000000 -500.000000 100.000000
      vertex 500.000000 -500.000000 -100.000000
    endloop
  endfacet
  facet normal 0.000000 -1.000000 0.000000
    outer loop
      vertex 300.000000 -500.000000 100.000000
      vertex 300.000000 -500.000000 -100.000000
      vertex 500.000000 -500.000000 -100.000000
    endloop
  endfacet
  facet normal 0.000000 -1.000000 0.000000
    outer loop
      vertex 500.000000 -500.000000 -100.000000
      vertex 300.000000 -500.000000 -100.000000
      vertex 500.000000 -500.000000 -300.000000
    endloop
  endfacet
  facet normal 0.000000 -1.000000 0.000000
    outer loop
      vertex 300.000000 -500.000000 -100.000000
      vertex 300.000000 -500.000000 -300.000000
      vertex 500.000000 -500.000000 -300.000000
    endloop
  endfacet
  facet normal 0.000000 -1.000000 0.000000
    outer loop
      vertex 500.000000 -500.000000 -300.000000
      vertex 300.000000 -500.000000 -300.000000
      vertex 500.000000 -500.000000 -500.000000
    endloop
  endfacet
  facet normal 0.000000 -1.000000 0.000000
    outer loop
      vertex 300.000000 -500.000000 -300.000000
      vertex 300.000000 -500.000000 -500.000000
      vertex 500.000000 -500.000000 -500.000000
    endloop
  endfacet
  facet normal 0.000000 -1.000000 0.000000
    outer loop
      vertex 300.000000 -500.000000 500.000000
      vertex 100.000000 -500.000000 500.000000
      vertex 300.000000 -500.000000 300.000000
    endloop
  endfacet
  facet normal 0.000000 -1.000000 0.000000
    outer loop
      vertex 100.000000 -500.000000 500.000000
      vertex 100.000000 -500.000000 300.000000
      vertex 300.000000 -500.000000 300.000000
    endloop
  endfacet
  facet normal 0.000000 -1.000000 0.000000
    outer loop
      vertex 300.000000 -500.000000 300.000000
      vertex 100.000000 -500.000000 300.000000
      vertex 300.000000 -500.000000 100.000000
    endloop
  endfacet
  facet normal 0.000000 -1.000000 0.000000
    outer loop
      vertex 100.000000 -500.000000 300.000000
      vertex 100.000000 -500.000000 100.000000
      vertex 300.000000 -500.000000 100.000000
    endloop
  endfacet
  facet normal 0.000000 -1.000000 0.000000
    outer loop
      vertex 300.000000 -500.000000 100.000000
      vertex 100.000000 -500.000000 100.000000
      vertex 300.000000 -500.000000 -100.000000
    endloop
  endfacet
  facet normal 0.000000 -1.000000 0.000000
    outer loop
      vertex 100.000000 -500.000000 100.000000
      vertex 100.000000 -500.000000 -100.000000
      vertex 300.000000 -500.000000 -100.000000
    endloop
  endfacet
  facet normal 0.000000 -1.000000 0.000000
    outer loop
      vertex 300.000000 -500.000000 -100.000000
      vertex 100.000000 -500.000000 -100.000000
      vertex 300.000000 -500.000000 -300.000000
    endloop
  endfacet
  facet normal 0.000000 -1.000000 0.000000
    outer loop
      vertex 100.000000 -500.000000 -100.000000
      vertex 100.000000 -500.000000 -300.000000
      vertex 300.000000 -500.000000 -300.000000
    endloop
  endfacet
  facet normal 0.000000 -1.000000 0.000000
    outer loop
      vertex 300.000000 -500.000000 -300.000000
      vertex 100.000000 -500.000000 -300.000000
      vertex 300.000000 -500.000000 -500.000000
    endloop
  endfacet
  facet normal 0.000000 -1.000000 0.000000
    outer loop
      vertex 100.000000 -500.000000 -300.000000
      vertex 100.000000 -500.000000 -500.000000
      vertex 300.000000 -500.000000 -500.000000
    endloop
  endfacet
  facet normal 0.000000 -1.000000 0.000000
    outer loop
      vertex 100.000000 -500.000000 500.000000
      vertex -100.000000 -500.000000 500.000000
      vertex 100.000000 -500.000000 300.000000
    endloop
  endfacet
  facet normal 0.000000 -1.000000 0.000000
    outer loop
      vertex -100.000000 -500.000000 500.000000
      vertex -100.000000 -500.000000 300.000000
      vertex 100.000000 -500.000000 300.000000
    endloop
  endfacet
  facet normal 0.000000 -1.000000 0.000000
    outer loop
      vertex 100.000000 -500.000000 300.000000
      vertex -100.000000 -500.000000 300.000000
      vertex 100.000000 -500.000000 100.000000
    endloop
  endfacet
  facet normal 0.000000 -1.000000 0.000000
    outer loop
      vertex -100.000000 -500.000000 300.000000
      vertex -100.000000 -500.000000 100.000000
      vertex 100.000000 -500.000000 100.000000
    endloop
  endfacet
  facet normal 0.000000 -1.000000 0.000000
    outer loop
      vertex 100.000000 -500.000000 100.000000
      vertex -100.000000 -500.000000 100.000000
      vertex 100.000000 -500.000000 -100.000000
    endloop
  endfacet
  facet normal 0.000000 -1.000000 0.000000
    outer loop
      vertex -100.000000 -500.000000 100.000000
      vertex -100.000000 -500.000000 -100.000000
      vertex 100.000000 -500.000000 -100.000000
    endloop
  endfacet
  facet normal 0.000000 -1.000000 0.000000
    outer loop
      vertex 100.000000 -500.000000 -100.000000
      vertex -100.000000 -500.000000 -100.000000
      vertex 100.000000 -500.000000 -300.000000
    endloop
  endfacet
  facet normal 0.000000 -1.000000 0.000000
    outer loop
      vertex -100.000000 -500.000000 -100.000000
      vertex -100.000000 -500.000000 -300.000000
      vertex 100.000000 -500.000000 -300.000000
    endloop
  endfacet
  facet normal 0.000000 -1.000000 0.000000
    outer loop
      vertex 100.000000 -500.000000 -300.000000
      vertex -100.000000 -500.000000 -300.000000
      vertex 100.000000 -500.000000 -500.000000
    endloop
  endfacet
  facet normal 0.000000 -1.000000 0.000000
    outer loop
      vertex -100.000000 -500.000000 -300.000000
      vertex -100.000000 -500.000000 -500.000000
      vertex 100.000000 -500.000000 -500.000000
    endloop
  endfacet
  facet normal 0.000000 -1.000000 0.000000
    outer loop
      vertex -100.000000 -500.000000 500.000000
      vertex -300.000000 -500.000000 500.000000
      vertex -100.000000 -500.000000 300.000000
    endloop
  endfacet
  facet normal 0.000000 -1.000000 0.000000
    outer loop
      vertex -300.000000 -500.000000 500.000000
      vertex -300.000000 -500.000000 300.000000
      vertex -100.000000 -500.000000 300.000000
    endloop
  endfacet
  facet normal 0.000000 -1.000000 0.000000
    outer loop
      vertex -100.000000 -500.000000 300.000000
      vertex -300.000000 -500.000000 300.000000
      vertex -100.000000 -500.000000 100.000000
    endloop
  endfacet
  facet normal 0.000000 -1.000000 0.000000
    outer loop
      vertex -300.000000 -500.000000 300.000000
      vertex -300.000000 -500.000000 100.000000
      vertex -100.000000 -500.000000 100.000000
    endloop
  endfacet
  facet normal 0.000000 -1.000000 0.000000
    outer loop
      vertex -100.000000 -500.000000 100.000000
      vertex -300.000000 -500.000000 100.000000
      vertex -100.000000 -500.000000 -100.000000
    endloop
  endfacet
  facet normal 0.000000 -1.000000 0.000000
    outer loop
      vertex -300.000000 -500.000000 100.000000
      vertex -300.000000 -500.000000 -100.000000
      vertex -100.000000 -500.000000 -100.000000
    endloop
  endfacet
  facet normal 0.000000 -1.000000 0.000000
    outer loop
      vertex -100.000000 -500.000000 -100.000000
      vertex -300.000000 -500.000000 -100.000000
      vertex -100.000000 -500.000000 -300.000000
    endloop
  endfacet
  facet normal 0.000000 -1.000000 0.000000
    outer loop
      vertex -300.000000 -500.000000 -100.000000
      vertex -300.000000 -500.000000 -300.000000
      vertex -100.000000 -500.000000 -300.000000
    endloop
  endfacet
  facet normal 0.000000 -1.000000 0.000000
    outer loop
      vertex -100.000000 -500.000000 -300.000000
      vertex -300.000000 -500.000000 -300.000000
      vertex -100.000000 -500.000000 -500.000000
    endloop
  endfacet
  facet normal 0.000000 -1.000000 0.000000
    outer loop
      vertex -300.000000 -500.000000 -300.000000
      vertex -300.000000 -500.000000 -500.000000
      vertex -100.000000 -500.000000 -500.000000
    endloop
  endfacet
  facet normal 0.000000 -1.000000 0.000000
    outer loop
      vertex -300.000000 -500.000000 500.000000
      vertex -500.000000 -500.000000 500.000000
      vertex -300.000000 -500.000000 300.000000
    endloop
  endfacet
  facet normal 0.000000 -1.000000 0.000000
    outer loop
      vertex -500.000000 -500.000000 500.000000
      vertex -500.000000 -500.000000 300.000000
      vertex -300.000000 -500.000000 300.000000
    endloop
  endfacet
  facet normal 0.000000 -1.000000 0.000000
    outer loop
      vertex -300.000000 -500.000000 300.000000
      vertex -500.000000 -500.000000 300.000000
      vertex -300.000000 -500.000000 100.000000
    endloop
  endfacet
  facet normal 0.000000 -1.000000 0.000000
    outer loop
      vertex -500.000000 -500.000000 300.000000
      vertex -500.000000 -500.000000 100.000000
      vertex -300.000000 -500.000000 100.000000
    endloop
  endfacet
  facet normal 0.000000 -1.000000 0.000000
    outer loop
      vertex -300.000000 -500.000000 100.000000
      vertex -500.000000 -500.000000 100.000000
      vertex -300.000000 -500.000000 -100.000000
    endloop
  endfacet
  facet normal 0.000000 -1.000000 0.000000
    outer loop
      vertex -500.000000 -500.000000 100.000000
      vertex -500.000000 -500.000000 -100.000000
      vertex -300.000000 -500.000000 -100.000000
    endloop
  endfacet
  facet normal 0.000000 -1.000000 0.000000
    outer loop
      vertex -300.000000 -500.000000 -100.000000
      vertex -500.000000 -500.000000 -100.000000
      vertex -300.000000 -500.000000 -300.000000
    endloop
  endfacet
  facet normal 0.000000 -1.000000 0.000000
    outer loop
      vertex -500.000000 -500.000000 -100.000000
      vertex -500.000000 -500.000000 -300.000000
      vertex -300.000000 -500.000000 -300.000000
    endloop
  endfacet
  facet normal 0.000000 -1.000000 0.000000
    outer loop
      vertex -300.000000 -500.000000 -300.000000
      vertex -500.000000 -500.000000 -300.000000
      vertex -300.000000 -500.000000 -500.000000
    endloop
  endfacet
  facet normal 0.000000 -1.000000 0.000000
    outer loop
      vertex -500.000000 -500.000000 -300.000000
      vertex -500.000000 -500.000000 -500.000000
      vertex -300.000000 -500.000000 -500.000000
    endloop
  endfacet
  facet normal 0.000000 0.000000 1.000000
    outer loop
      vertex -500.000000 500.000000 500.000000
      vertex -500.000000 300.000000 500.000000
      vertex -300.000000 500.000000 500.000000
    endloop
  endfacet
  facet normal 0.000000 0.000000 1.000000
    outer loop
      vertex -300.000000 500.000000 500.000000
      vertex -500.000000 300.000000 500.000000
      vertex -300.000000 300.000000 500.000000
    endloop
  endfacet
  facet normal 0.000000 0.000000 1.000000
    outer loop
      vertex -500.000000 300.000000 500.000000
      vertex -500.000000 100.000000 500.000000
      vertex -300.000000 300.000000 500.000000
    endloop
  endfacet
  facet normal 0.000000 0.000000 1.000000
    outer loop
      vertex -300.000000 300.000000 500.000000
      vertex -500.000000 100.000000 500.000000
      vertex -300.000000 100.000000 500.000000
    endloop
  endfacet
  facet normal 0.000000 0.000000 1.000000
    outer loop
      vertex -500.000000 100.000000 500.000000
      vertex -500.000000 -100.000000 500.000000
      vertex -300.000000 100.000000 500.000000
    endloop
  endfacet
  facet normal 0.000000 0.000000 1.000000
    outer loop
      vertex -300.000000 100.000000 500.000000
      vertex -500.000000 -100.000000 500.000000
      vertex -300.000000 -100.000000 500.000000
    endloop
  endfacet
  facet normal 0.000000 0.000000 1.000000
    outer loop
      vertex -500.000000 -100.000000 500.000000
      vertex -500.000000 -300.000000 500.000000
      vertex -300.000000 -100.000000 500.000000
    endloop
  endfacet
  facet normal 0.000000 0.000000 1.000000
    outer loop
      vertex -300.000000 -100.000000 500.000000
      vertex -500.000000 -300.000000 500.000000
      vertex -300.000000 -300.000000 500.000000
    endloop
  endfacet
  facet normal 0.000000 0.000000 1.000000
    outer loop
      vertex -500.000000 -300.000000 500.000000
      vertex -500.000000 -500.000000 500.000000
      vertex -300.000000 -300.000000 500.000000
    endloop
  endfacet
  facet normal 0.000000 0.000000 1.000000
    outer loop
      vertex -300.000000 -300.000000 500.000000
      vertex -500.000000 -500.000000 500.000000
      vertex -300.000000 -500.000000 500.000000
    endloop
  endfacet
  facet normal 0.000000 0.000000 1.000000
    outer loop
      vertex -300.000000 500.000000 500.000000
      vertex -300.000000 300.000000 500.000000
      vertex -100.000000 500.000000 500.000000
    endloop
  endfacet
  facet normal 0.000000 0.000000 1.000000
    outer loop
      vertex -100.000000 500.000000 500.000000
      vertex -300.000000 300.000000 500.000000
      vertex -100.000000 300.000000 500.000000
    endloop
  endfacet
  facet normal 0.000000 0.000000 1.000000
    outer loop
      vertex -300.000000 300.000000 500.000000
      vertex -300.000000 100.000000 500.000000
      vertex -100.000000 300.000000 500.000000
    endloop
  endfacet
  facet normal 0.000000 0.000000 1.000000
    outer loop
      vertex -100.000000 300.000000 500.000000
      vertex -300.000000 100.000000 500.000000
      vertex -100.000000 100.000000 500.000000
    endloop
  endfacet
  facet normal 0.000000 0.000000 1.000000
    outer loop
      vertex -300.000000 100.000000 500.000000
      vertex -300.000000 -100.000000 500.000000
      vertex -100.000000 100.000000 500.000000
    endloop
  endfacet
  facet normal 0.000000 0.000000 1.000000
    outer loop
      vertex -100.000000 100.000000 500.000000
      vertex -300.000000 -100.000000 500.000000
      vertex -100.000000 -100.000000 500.000000
    endloop
  endfacet
  facet normal 0.000000 0.000000 1.000000
    outer loop
      vertex -300.000000 -100.000000 500.000000
      vertex -300.000000 -300.000000 500.000000
      vertex -100.000000 -100.000000 500.000000
    endloop
  endfacet
  facet normal 0.000000 0.000000 1.000000
    outer loop
      vertex -100.000000 -100.000000 500.000000
      vertex -300.000000 -300.000000 500.000000
      vertex -100.000000 -300.000000 500.000000
    endloop
  endfacet
  facet normal 0.000000 0.000000 1.000000
    outer loop
      vertex -300.000000 -300.000000 500.000000
      vertex -300.000000 -500.000000 500.000000
      vertex -100.000000 -300.000000 500.000000
    endloop
  endfacet
  facet normal 0.000000 0.000000 1.000000
    outer loop
      vertex -100.000000 -300.000000 500.000000
      vertex -300.000000 -500.000000 500.000000
      vertex -100.000000 -500.000000 500.000000
    endloop
  endfacet
  facet normal 0.000000 0.000000 1.000000
    outer loop
      vertex -100.000000 500.000000 500.000000
      vertex -100.000000 300.000000 500.000000
      vertex 100.000000 500.000000 500.000000
    endloop
  endfacet
  facet normal 0.000000 0.000000 1.000000
    outer loop
      vertex 100.000000 500.000000 500.000000
      vertex -100.000000 300.000000 500.000000
      vertex 100.000000 300.000000 500.000000
    endloop
  endfacet
  facet normal 0.000000 0.000000 1.000000
    outer loop
      vertex -100.000000 300.000000 500.000000
      vertex -100.000000 100.000000 500.000000
      vertex 100.000000 300.000000 500.000000
    endloop
  endfacet
  facet normal 0.000000 0.000000 1.000000
    outer loop
      vertex 100.000000 300.000000 500.000000
      vertex -100.000000 100.000000 500.000000
      vertex 100.000000 100.000000 500.000000
    endloop
  endfacet
  facet normal 0.000000 0.000000 1.000000
    outer loop
      vertex -100.000000 100.000000 500.000000
      vertex -100.000000 -100.000000 500.000000
      vertex 100.000000 100.000000 500.000000
    endloop
  endfacet
  facet normal 0.000000 0.000000 1.000000
    outer loop
      vertex 100.000000 100.000000 500.000000
      vertex -100.000000 -100.000000 500.000000
      vertex 100.000000 -100.000000 500.000000
    endloop
  endfacet
  facet normal 0.000000 0.000000 1.000000
    outer loop
      vertex -100.000000 -100.000000 500.000000
      vertex -100.000000 -300.000000 500.000000
      vertex 100.000000 -100.000000 500.000000
    endloop
  endfacet
  facet normal 0.000000 0.000000 1.000000
    outer loop
      vertex 100.000000 -100.000000 500.000000
      vertex -100.000000 -300.000000 500.000000
      vertex 100.000000 -300.000000 500.000000
    endloop
  endfacet
  facet normal 0.000000 0.000000 1.000000
    outer loop
      vertex -100.000000 -300.000000 500.000000
      vertex -100.000000 -500.000000 500.000000
      vertex 100.000000 -300.000000 500.000000
    endloop
  endfacet
  facet normal 0.000000 0.000000 1.000000
    outer loop
      vertex 100.000000 -300.000000 500.000000
      vertex -100.000000 -500.000000 500.000000
      vertex 100.000000 -500.000000 500.000000
    endloop
  endfacet
  facet normal 0.000000 0.000000 1.000000
    outer loop
      vertex 100.000000 500.000000 500.000000
      vertex 100.000000 300.000000 500.000000
      vertex 300.000000 500.000000 500.000000
    endloop
  endfacet
  facet normal 0.000000 0.000000 1.000000
    outer loop
      vertex 300.000000 500.000000 500.000000
      vertex 100.000000 300.000000 500.000000
      vertex 300.000000 300.000000 500.000000
    endloop
  endfacet
  facet normal 0.000000 0.000000 1.000000
    outer loop
      vertex 100.000000 300.000000 500.000000
      vertex 100.000000 100.000000 500.000000
      vertex 300.000000 300.000000 500.000000
    endloop
  endfacet
  facet normal 0.000000 0.000000 1.000000
    outer loop
      vertex 300.000000 300.000000 500.000000
      vertex 100.000000 100.000000 500.000000
      vertex 300.000000 100.000000 500.000000
    endloop
  endfacet
  facet normal 0.000000 0.000000 1.000000
    outer loop
      vertex 100.000000 100.000000 500.000000
      vertex 100.000000 -100.000000 500.000000
      vertex 300.000000 100.000000 500.000000
    endloop
  endfacet
  facet normal 0.000000 0.000000 1.000000
    outer loop
      vertex 300.000000 100.000000 500.000000
      vertex 100.000000 -100.000000 500.000000
      vertex 300.000000 -100.000000 500.000000
    endloop
  endfacet
  facet normal 0.000000 0.000000 1.000000
    outer loop
      vertex 100.000000 -100.000000 500.000000
      vertex 100.000000 -300.000000 500.000000
      vertex 300.000000 -100.000000 500.000000
    endloop
  endfacet
  facet normal 0.000000 0.000000 1.000000
    outer loop
      vertex 300.000000 -100.000000 500.000000
      vertex 100.000000 -300.000000 500.000000
      vertex 300.000000 -300.000000 500.000000
    endloop
  endfacet
  facet normal 0.000000 0.000000 1.000000
    outer loop
      vertex 100.000000 -300.000000 500.000000
      vertex 100.000000 -500.000000 500.000000
      vertex 300.000000 -300.000000 500.000000
    endloop
  endfacet
  facet normal 0.000000 0.000000 1.000000
    outer loop
      vertex 300.000000 -300.000000 500.000000
      vertex 100.000000 -500.000000 500.000000
      vertex 300.000000 -500.000000 500.000000
    endloop
  endfacet
  facet normal 0.000000 0.000000 1.000000
    outer loop
      vertex 300.000000 500.000000 500.000000
      vertex 300.000000 300.000000 500.000000
      vertex 500.000000 500.000000 500.000000
    endloop
  endfacet
  facet normal 0.000000 0.000000 1.000000
    outer loop
      vertex 500.000000 500.000000 500.000000
      vertex 300.000000 300.000000 500.000000
      vertex 500.000000 300.000000 500.000000
    endloop
  endfacet
  facet normal 0.000000 0.000000 1.000000
    outer loop
      vertex 300.000000 300.000000 500.000000
      vertex 300.000000 100.000000 500.000000
      vertex 500.000000 300.000000 500.000000
    endloop
  endfacet
  facet normal 0.000000 0.000000 1.000000
    outer loop
      vertex 500.000000 300.000000 500.000000
      vertex 300.000000 100.000000 500.000000
      vertex 500.000000 100.000000 500.000000
    endloop
  endfacet
  facet normal 0.000000 0.000000 1.000000
    outer loop
      vertex 300.000000 100.000000 500.000000
      vertex 300.000000 -100.000000 500.000000
      vertex 500.000000 100.000000 500.000000
    endloop
  endfacet
  facet normal 0.000000 0.000000 1.000000
    outer loop
      vertex 500.000000 100.000000 500.000000
      vertex 300.000000 -100.000000 500.000000
      vertex 500.000000 -100.000000 500.000000
    endloop
  endfacet
  facet normal 0.000000 0.000000 1.000000
    outer loop
      vertex 300.000000 -100.000000 500.000000
      vertex 300.000000 -300.000000 500.000000
      vertex 500.000000 -100.000000 500.000000
    endloop
  endfacet
  facet normal 0.000000 0.000000 1.000000
    outer loop
      vertex 500.000000 -100.000000 500.000000
      vertex 300.000000 -300.000000 500.000000
      vertex 500.000000 -300.000000 500.000000
    endloop
  endfacet
  facet normal 0.000000 0.000000 1.000000
    outer loop
      vertex 300.000000 -300.000000 500.000000
      vertex 300.000000 -500.000000 500.000000
      vertex 500.000000 -300.000000 500.000000
    endloop
  endfacet
  facet normal 0.000000 0.000000 1.000000
    outer loop
      vertex 500.000000 -300.000000 500.000000
      vertex 300.000000 -500.000000 500.000000
      vertex 500.000000 -500.000000 500.000000
    endloop
  endfacet
  facet normal 0.000000 0.000000 -1.000000
    outer loop
      vertex 500.000000 500.000000 -500.000000
      vertex 500.000000 300.000000 -500.000000
      vertex 300.000000 500.000000 -500.000000
    endloop
  endfacet
  facet normal 0.000000 0.000000 -1.000000
    outer loop
      vertex 300.000000 500.000000 -500.000000
      vertex 500.000000 300.000000 -500.000000
      vertex 300.000000 300.000000 -500.000000
    endloop
  endfacet
  facet normal 0.000000 0.000000 -1.000000
    outer loop
      vertex 500.000000 300.000000 -500.000000
      vertex 500.000000 100.000000 -500.000000
      vertex 300.000000 300.000000 -500.000000
    endloop
  endfacet
  facet normal 0.000000 0.000000 -1.000000
    outer loop
      vertex 300.000000 300.000000 -500.000000
      vertex 500.000000 100.000000 -500.000000
      vertex 300.000000 100.000000 -500.000000
    endloop
  endfacet
  facet normal 0.000000 0.000000 -1.000000
    outer loop
      vertex 500.000000 100.000000 -500.000000
      vertex 500.000000 -100.000000 -500.000000
      vertex 300.000000 100.000000 -500.000000
    endloop
  endfacet
  facet normal 0.000000 0.000000 -1.000000
    outer loop
      vertex 300.000000 100.000000 -500.000000
      vertex 500.000000 -100.000000 -500.000000
      vertex 300.000000 -100.000000 -500.000000
    endloop
  endfacet
  facet normal 0.000000 0.000000 -1.000000
    outer loop
      vertex 500.000000 -100.000000 -500.000000
      vertex 500.000000 -300.000000 -500.000000
      vertex 300.000000 -100.000000 -500.000000
    endloop
  endfacet
  facet normal 0.000000 0.000000 -1.000000
    outer loop
      vertex 300.000000 -100.000000 -500.000000
      vertex 500.000000 -300.000000 -500.000000
      vertex 300.000000 -300.000000 -500.000000
    endloop
  endfacet
  facet normal 0.000000 0.000000 -1.000000
    outer loop
      vertex 500.000000 -300.000000 -500.000000
      vertex 500.000000 -500.000000 -500.000000
      vertex 300.000000 -300.000000 -500.000000
    endloop
  endfacet
  facet normal 0.000000 0.000000 -1.000000
    outer loop
      vertex 300.000000 -300.000000 -500.000000
      vertex 500.000000 -500.000000 -500.000000
      vertex 300.000000 -500.000000 -500.000000
    endloop
  endfacet
  facet normal 0.000000 0.000000 -1.000000
    outer loop
      vertex 300.000000 500.000000 -500.000000
      vertex 300.000000 300.000000 -500.000000
      vertex 100.000000 500.000000 -500.000000
    endloop
  endfacet
  facet normal 0.000000 0.000000 -1.000000
    outer loop
      vertex 100.000000 500.000000 -500.000000
      vertex 300.000000 300.000000 -500.000000
      vertex 100.000000 300.000000 -500.000000
    endloop
  endfacet
  facet normal 0.000000 0.000000 -1.000000
    outer loop
      vertex 300.000000 300.000000 -500.000000
      vertex 300.000000 100.000000 -500.000000
      vertex 100.000000 300.000000 -500.000000
    endloop
  endfacet
  facet normal 0.000000 0.000000 -1.000000
    outer loop
      vertex 100.000000 300.000000 -500.000000
      vertex 300.000000 100.000000 -500.000000
      vertex 100.000000 100.000000 -500.000000
    endloop
  endfacet
  facet normal 0.000000 0.000000 -1.000000
    outer loop
      vertex 300.000000 100.000000 -500.000000
      vertex 300.000000 -100.000000 -500.000000
      vertex 100.000000 100.000000 -500.000000
    endloop
  endfacet
  facet normal 0.000000 0.000000 -1.000000
    outer loop
      vertex 100.000000 100.000000 -500.000000
      vertex 300.000000 -100.000000 -500.000000
      vertex 100.000000 -100.000000 -500.000000
    endloop
  endfacet
  facet normal 0.000000 0.000000 -1.000000
    outer loop
      vertex 300.000000 -100.000000 -500.000000
      vertex 300.000000 -300.000000 -500.000000
      vertex 100.000000 -100.000000 -500.000000
    endloop
  endfacet
  facet normal 0.000000 0.000000 -1.000000
    outer loop
      vertex 100.000000 -100.000000 -500.000000
      vertex 300.000000 -300.000000 -500.000000
      vertex 100.000000 -300.000000 -500.000000
    endloop
  endfacet
  facet normal 0.000000 0.000000 -1.000000
    outer loop
      vertex 300.000000 -300.000000 -500.000000
      vertex 300.000000 -500.000000 -500.000000
      vertex 100.000000 -300.000000 -500.000000
    endloop
  endfacet
  facet normal 0.000000 0.000000 -1.000000
    outer loop
      vertex 100.000000 -300.000000 -500.000000
      vertex 300.000000 -500.000000 -500.000000
      vertex 100.000000 -500.000000 -500.000000
    endloop
  endfacet
  facet normal 0.000000 0.000000 -1.000000
    outer loop
      vertex 100.000000 500.000000 -500.000000
      vertex 100.000000 300.000000 -500.000000
      vertex -100.000000 500.000000 -500.000000
    endloop
  endfacet
  facet normal 0.000000 0.000000 -1.000000
    outer loop
      vertex -100.000000 500.000000 -500.000000
      vertex 100.000000 300.000000 -500.000000
      vertex -100.000000 300.000000 -500.000000
    endloop
  endfacet
  facet normal 0.000000 0.000000 -1.000000
    outer loop
      vertex 100.000000 300.000000 -500.000000
      vertex 100.000000 100.000000 -500.000000
      vertex -100.000000 300.000000 -500.000000
    endloop
  endfacet
  facet normal 0.000000 0.000000 -1.000000
    outer loop
      vertex -100.000000 300.000000 -500.000000
      vertex 100.000000 100.000000 -500.000000
      vertex -100.000000 100.000000 -500.000000
    endloop
  endfacet
  facet normal 0.000000 0.000000 -1.000000
    outer loop
      vertex 100.000000 100.000000 -500.000000
      vertex 100.000000 -100.000000 -500.000000
      vertex -100.000000 100.000000 -500.000000
    endloop
  endfacet
  facet normal 0.000000 0.000000 -1.000000
    outer loop
      vertex -100.000000 100.000000 -500.000000
      vertex 100.000000 -100.000000 -500.000000
      vertex -100.000000 -100.000000 -500.000000
    endloop
  endfacet
  facet normal 0.000000 0.000000 -1.000000
    outer loop
      vertex 100.000000 -100.000000 -500.000000
      vertex 100.000000 -300.000000 -500.000000
      vertex -100.000000 -100.000000 -500.000000
    endloop
  endfacet
  facet normal 0.000000 0.000000 -1.000000
    outer loop
      vertex -100.000000 -100.000000 -500.000000
      vertex 100.000000 -300.000000 -500.000000
      vertex -100.000000 -300.000000 -500.000000
    endloop
  endfacet
  facet normal 0.000000 0.000000 -1.000000
    outer loop
      vertex 100.000000 -300.000000 -500.000000
      vertex 100.000000 -500.000000 -500.000000
      vertex -100.000000 -300.000000 -500.000000
    endloop
  endfacet
  facet normal 0.000000 0.000000 -1.000000
    outer loop
      vertex -100.000000 -300.000000 -500.000000
      vertex 100.000000 -500.000000 -500.000000
      vertex -100.000000 -500.000000 -500.000000
    endloop
  endfacet
  facet normal 0.000000 0.000000 -1.000000
    outer loop
      vertex -100.000000 500.000000 -500.000000
      vertex -100.000000 300.000000 -500.000000
      vertex -300.000000 500.000000 -500.000000
    endloop
  endfacet
  facet normal 0.000000 0.000000 -1.000000
    outer loop
      vertex -300.000000 500.000000 -500.000000
      vertex -100.000000 300.000000 -500.000000
      vertex -300.000000 300.000000 -500.000000
    endloop
  endfacet
  facet normal 0.000000 0.000000 -1.000000
    outer loop
      vertex -100.000000 300.000000 -500.000000
      vertex -100.000000 100.000000 -500.000000
      vertex -300.000000 300.000000 -500.000000
    endloop
  endfacet
  facet normal 0.000000 0.000000 -1.000000
    outer loop
      vertex -300.000000 300.000000 -500.000000
      vertex -100.000000 100.000000 -500.000000
      vertex -300.000000 100.000000 -500.000000
    endloop
  endfacet
  facet normal 0.000000 0.000000 -1.000000
    outer loop
      vertex -100.000000 100.000000 -500.000000
      vertex -100.000000 -100.000000 -500.000000
      vertex -300.000000 100.000000 -500.000000
    endloop
  endfacet
  facet normal 0.000000 0.000000 -1.000000
    outer loop
      vertex -300.000000 100.000000 -500.000000
      vertex -100.000000 -100.000000 -500.000000
      vertex -300.000000 -100.000000 -500.000000
    endloop
  endfacet
  facet normal 0.000000 0.000000 -1.000000
    outer loop
      vertex -100.000000 -100.000000 -500.000000
      vertex -100.000000 -300.000000 -500.000000
      vertex -300.000000 -100.000000 -500.000000
    endloop
  endfacet
  facet normal 0.000000 0.000000 -1.000000
    outer loop
      vertex -300.000000 -100.000000 -500.000000
      vertex -100.000000 -300.000000 -500.000000
      vertex -300.000000 -300.000000 -500.000000
    endloop
  endfacet
  facet normal 0.000000 0.000000 -1.000000
    outer loop
      vertex -100.000000 -300.000000 -500.000000
      vertex -100.000000 -500.000000 -500.000000
      vertex -300.000000 -300.000000 -500.000000
    endloop
  endfacet
  facet normal 0.000000 0.000000 -1.000000
    outer loop
      vertex -300.000000 -300.000000 -500.000000
      vertex -100.000000 -500.000000 -500.000000
      vertex -300.000000 -500.000000 -500.000000
    endloop
  endfacet
  facet normal 0.000000 0.000000 -1.000000
    outer loop
      vertex -300.000000 500.000000 -500.000000
      vertex -300.000000 300.000000 -500.000000
      vertex -500.000000 500.000000 -500.000000
    endloop
  endfacet
  facet normal 0.000000 0.000000 -1.000000
    outer loop
      vertex -500.000000 500.000000 -500.000000
      vertex -300.000000 300.000000 -500.000000
      vertex -500.000000 300.000000 -500.000000
    endloop
  endfacet
  facet normal 0.000000 0.000000 -1.000000
    outer loop
      vertex -300.000000 300.000000 -500.000000
      vertex -300.000000 100.000000 -500.000000
      vertex -500.000000 300.000000 -500.000000
    endloop
  endfacet
  facet normal 0.000000 0.000000 -1.000000
    outer loop
      vertex -500.000000 300.000000 -500.000000
      vertex -300.000000 100.000000 -500.000000
      vertex -500.000000 100.000000 -500.000000
    endloop
  endfacet
  facet normal 0.000000 0.000000 -1.000000
    outer loop
      vertex -300.000000 100.000000 -500.000000
      vertex -300.000000 -100.000000 -500.000000
      vertex -500.000000 100.000000 -500.000000
    endloop
  endfacet
  facet normal 0.000000 0.000000 -1.000000
    outer loop
      vertex -500.000000 100.000000 -500.000000
      vertex -300.000000 -100.000000 -500.000000
      vertex -500.000000 -100.000000 -500.000000
    endloop
  endfacet
  facet normal 0.000000 0.000000 -1.000000
    outer loop
      vertex -300.000000 -100.000000 -500.000000
      vertex -300.000000 -300.000000 -500.000000
      vertex -500.000000 -100.000000 -500.000000
    endloop
  endfacet
  facet normal 0.000000 0.000000 -1.000000
    outer loop
      vertex -500.000000 -100.000000 -500.000000
      vertex -300.000000 -300.000000 -500.000000
      vertex -500.000000 -300.000000 -500.000000
    endloop
  endfacet
  facet normal 0.000000 0.000000 -1.000000
    outer loop
      vertex -300.000000 -300.000000 -500.000000
      vertex -300.000000 -500.000000 -500.000000
      vertex -500.000000 -300.000000 -500.000000
    endloop
  endfacet
  facet normal 0.000000 0.000000 -1.000000
    outer loop
      vertex -500.000000 -300.000000 -500.000000
      vertex -300.000000 -500.000000 -500.000000
      vertex -500.000000 -500.000000 -500.000000
    endloop
  endfacet
endsolid cube_subd5
