solid subd_plate
  facet normal 0.000000 1.000000 0.000000
    outer loop
      vertex -500.000000 0.000000 -500.000000
      vertex -500.000000 0.000000 -400.000000
      vertex -400.000000 0.000000 -500.000000
    endloop
  endfacet
  facet normal 0.000000 1.000000 0.000000
    outer loop
      vertex -400.000000 0.000000 -500.000000
      vertex -500.000000 0.000000 -400.000000
      vertex -400.000000 0.000000 -400.000000
    endloop
  endfacet
  facet normal 0.000000 1.000000 0.000000
    outer loop
      vertex -500.000000 0.000000 -400.000000
      vertex -500.000000 0.000000 -300.000000
      vertex -400.000000 0.000000 -400.000000
    endloop
  endfacet
  facet normal 0.000000 1.000000 0.000000
    outer loop
      vertex -400.000000 0.000000 -400.000000
      vertex -500.000000 0.000000 -300.000000
      vertex -400.000000 0.000000 -300.000000
    endloop
  endfacet
  facet normal 0.000000 1.000000 0.000000
    outer loop
      vertex -500.000000 0.000000 -300.000000
      vertex -500.000000 0.000000 -200.000000
      vertex -400.000000 0.000000 -300.000000
    endloop
  endfacet
  facet normal 0.000000 1.000000 0.000000
    outer loop
      vertex -400.000000 0.000000 -300.000000
      vertex -500.000000 0.000000 -200.000000
      vertex -400.000000 0.000000 -200.000000
    endloop
  endfacet
  facet normal 0.000000 1.000000 0.000000
    outer loop
      vertex -500.000000 0.000000 -200.000000
      vertex -500.000000 0.000000 -100.000000
      vertex -400.000000 0.000000 -200.000000
    endloop
  endfacet
  facet normal 0.000000 1.000000 0.000000
    outer loop
      vertex -400.000000 0.000000 -200.000000
      vertex -500.000000 0.000000 -100.000000
      vertex -400.000000 0.000000 -100.000000
    endloop
  endfacet
  facet normal 0.000000 1.000000 0.000000
    outer loop
      vertex -500.000000 0.000000 -100.000000
      vertex -500.000000 0.000000 0.000000
      vertex -400.000000 0.000000 -100.000000
    endloop
  endfacet
  facet normal 0.000000 1.000000 0.000000
    outer loop
      vertex -400.000000 0.000000 -100.000000
      vertex -500.000000 0.000000 0.000000
      vertex -400.000000 0.000000 0.000000
    endloop
  endfacet
  facet normal 0.000000 1.000000 0.000000
    outer loop
      vertex -500.000000 0.000000 0.000000
      vertex -500.000000 0.000000 100.000000
      vertex -400.000000 0.000000 0.000000
    endloop
  endfacet
  facet normal 0.000000 1.000000 0.000000
    outer loop
      vertex -400.000000 0.000000 0.000000
      vertex -500.000000 0.000000 100.000000
      vertex -400.000000 0.000000 100.000000
    endloop
  endfacet
  facet normal 0.000000 1.000000 0.000000
    outer loop
      vertex -500.000000 0.000000 100.000000
      vertex -500.000000 0.000000 200.000000
      vertex -400.000000 0.000000 100.000000
    endloop
  endfacet
  facet normal 0.000000 1.000000 0.000000
    outer loop
      vertex -400.000000 0.000000 100.000000
      vertex -500.000000 0.000000 200.000000
      vertex -400.000000 0.000000 200.000000
    endloop
  endfacet
  facet normal 0.000000 1.000000 0.000000
    outer loop
      vertex -500.000000 0.000000 200.000000
      vertex -500.000000 0.000000 300.000000
      vertex -400.000000 0.000000 200.000000
    endloop
  endfacet
  facet normal 0.000000 1.000000 0.000000
    outer loop
      vertex -400.000000 0.000000 200.000000
      vertex -500.000000 0.000000 300.000000
      vertex -400.000000 0.000000 300.000000
    endloop
  endfacet
  facet normal 0.000000 1.000000 0.000000
    outer loop
      vertex -500.000000 0.000000 300.000000
      vertex -500.000000 0.000000 400.000000
      vertex -400.000000 0.000000 300.000000
    endloop
  endfacet
  facet normal 0.000000 1.000000 0.000000
    outer loop
      vertex -400.000000 0.000000 300.000000
      vertex -500.000000 0.000000 400.000000
      vertex -400.000000 0.000000 400.000000
    endloop
  endfacet
  facet normal 0.000000 1.000000 0.000000
    outer loop
      vertex -500.000000 0.000000 400.000000
      vertex -500.000000 0.000000 500.000000
      vertex -400.000000 0.000000 400.000000
    endloop
  endfacet
  facet normal 0.000000 1.000000 0.000000
    outer loop
      vertex -400.000000 0.000000 400.000000
      vertex -500.000000 0.000000 500.000000
      vertex -400.000000 0.000000 500.000000
    endloop
  endfacet
  facet normal 0.000000 1.000000 0.000000
    outer loop
      vertex -400.000000 0.000000 -500.000000
      vertex -400.000000 0.000000 -400.000000
      vertex -300.000000 0.000000 -500.000000
    endloop
  endfacet
  facet normal 0.000000 1.000000 0.000000
    outer loop
      vertex -300.000000 0.000000 -500.000000
      vertex -400.000000 0.000000 -400.000000
      vertex -300.000000 0.000000 -400.000000
    endloop
  endfacet
  facet normal 0.000000 1.000000 0.000000
    outer loop
      vertex -400.000000 0.000000 -400.000000
      vertex -400.000000 0.000000 -300.000000
      vertex -300.000000 0.000000 -400.000000
    endloop
  endfacet
  facet normal 0.000000 1.000000 0.000000
    outer loop
      vertex -300.000000 0.000000 -400.000000
      vertex -400.000000 0.000000 -300.000000
      vertex -300.000000 0.000000 -300.000000
    endloop
  endfacet
  facet normal 0.000000 1.000000 0.000000
    outer loop
      vertex -400.000000 0.000000 -300.000000
      vertex -400.000000 0.000000 -200.000000
      vertex -300.000000 0.000000 -300.000000
    endloop
  endfacet
  facet normal 0.000000 1.000000 0.000000
    outer loop
      vertex -300.000000 0.000000 -300.000000
      vertex -400.000000 0.000000 -200.000000
      vertex -300.000000 0.000000 -200.000000
    endloop
  endfacet
  facet normal 0.000000 1.000000 0.000000
    outer loop
      vertex -400.000000 0.000000 -200.000000
      vertex -400.000000 0.000000 -100.000000
      vertex -300.000000 0.000000 -200.000000
    endloop
  endfacet
  facet normal 0.000000 1.000000 0.000000
    outer loop
      vertex -300.000000 0.000000 -200.000000
      vertex -400.000000 0.000000 -100.000000
      vertex -300.000000 0.000000 -100.000000
    endloop
  endfacet
  facet normal 0.000000 1.000000 0.000000
    outer loop
      vertex -400.000000 0.000000 -100.000000
      vertex -400.000000 0.000000 0.000000
      vertex -300.000000 0.000000 -100.000000
    endloop
  endfacet
  facet normal 0.000000 1.000000 0.000000
    outer loop
      vertex -300.000000 0.000000 -100.000000
      vertex -400.000000 0.000000 0.000000
      vertex -300.000000 0.000000 0.000000
    endloop
  endfacet
  facet normal 0.000000 1.000000 0.000000
    outer loop
      vertex -400.000000 0.000000 0.000000
      vertex -400.000000 0.000000 100.000000
      vertex -300.000000 0.000000 0.000000
    endloop
  endfacet
  facet normal 0.000000 1.000000 0.000000
    outer loop
      vertex -300.000000 0.000000 0.000000
      vertex -400.000000 0.000000 100.000000
      vertex -300.000000 0.000000 100.000000
    endloop
  endfacet
  facet normal 0.000000 1.000000 0.000000
    outer loop
      vertex -400.000000 0.000000 100.000000
      vertex -400.000000 0.000000 200.000000
      vertex -300.000000 0.000000 100.000000
    endloop
  endfacet
  facet normal 0.000000 1.000000 0.000000
    outer loop
      vertex -300.000000 0.000000 100.000000
      vertex -400.000000 0.000000 200.000000
      vertex -300.000000 0.000000 200.000000
    endloop
  endfacet
  facet normal 0.000000 1.000000 0.000000
    outer loop
      vertex -400.000000 0.000000 200.000000
      vertex -400.000000 0.000000 300.000000
      vertex -300.000000 0.000000 200.000000
    endloop
  endfacet
  facet normal 0.000000 1.000000 0.000000
    outer loop
      vertex -300.000000 0.000000 200.000000
      vertex -400.000000 0.000000 300.000000
      vertex -300.000000 0.000000 300.000000
    endloop
  endfacet
  facet normal 0.000000 1.000000 0.000000
    outer loop
      vertex -400.000000 0.000000 300.000000
      vertex -400.000000 0.000000 400.000000
      vertex -300.000000 0.000000 300.000000
    endloop
  endfacet
  facet normal 0.000000 1.000000 0.000000
    outer loop
      vertex -300.000000 0.000000 300.000000
      vertex -400.000000 0.000000 400.000000
      vertex -300.000000 0.000000 400.000000
    endloop
  endfacet
  facet normal 0.000000 1.000000 0.000000
    outer loop
      vertex -400.000000 0.000000 400.000000
      vertex -400.000000 0.000000 500.000000
      vertex -300.000000 0.000000 400.000000
    endloop
  endfacet
  facet normal 0.000000 1.000000 0.000000
    outer loop
      vertex -300.000000 0.000000 400.000000
      vertex -400.000000 0.000000 500.000000
      vertex -300.000000 0.000000 500.000000
    endloop
  endfacet
  facet normal 0.000000 1.000000 0.000000
    outer loop
      vertex -300.000000 0.000000 -500.000000
      vertex -300.000000 0.000000 -400.000000
      vertex -200.000000 0.000000 -500.000000
    endloop
  endfacet
  facet normal 0.000000 1.000000 0.000000
    outer loop
      vertex -200.000000 0.000000 -500.000000
      vertex -300.000000 0.000000 -400.000000
      vertex -200.000000 0.000000 -400.000000
    endloop
  endfacet
  facet normal 0.000000 1.000000 0.000000
    outer loop
      vertex -300.000000 0.000000 -400.000000
      vertex -300.000000 0.000000 -300.000000
      vertex -200.000000 0.000000 -400.000000
    endloop
  endfacet
  facet normal 0.000000 1.000000 0.000000
    outer loop
      vertex -200.000000 0.000000 -400.000000
      vertex -300.000000 0.000000 -300.000000
      vertex -200.000000 0.000000 -300.000000
    endloop
  endfacet
  facet normal 0.000000 1.000000 0.000000
    outer loop
      vertex -300.000000 0.000000 -300.000000
      vertex -300.000000 0.000000 -200.000000
      vertex -200.000000 0.000000 -300.000000
    endloop
  endfacet
  facet normal 0.000000 1.000000 0.000000
    outer loop
      vertex -200.000000 0.000000 -300.000000
      vertex -300.000000 0.000000 -200.000000
      vertex -200.000000 0.000000 -200.000000
    endloop
  endfacet
  facet normal 0.000000 1.000000 0.000000
    outer loop
      vertex -300.000000 0.000000 -200.000000
      vertex -300.000000 0.000000 -100.000000
      vertex -200.000000 0.000000 -200.000000
    endloop
  endfacet
  facet normal 0.000000 1.000000 0.000000
    outer loop
      vertex -200.000000 0.000000 -200.000000
      vertex -300.000000 0.000000 -100.000000
      vertex -200.000000 0.000000 -100.000000
    endloop
  endfacet
  facet normal 0.000000 1.000000 0.000000
    outer loop
      vertex -300.000000 0.000000 -100.000000
      vertex -300.000000 0.000000 0.000000
      vertex -200.000000 0.000000 -100.000000
    endloop
  endfacet
  facet normal 0.000000 1.000000 0.000000
    outer loop
      vertex -200.000000 0.000000 -100.000000
      vertex -300.000000 0.000000 0.000000
      vertex -200.000000 0.000000 0.000000
    endloop
  endfacet
  facet normal 0.000000 1.000000 0.000000
    outer loop
      vertex -300.000000 0.000000 0.000000
      vertex -300.000000 0.000000 100.000000
      vertex -200.000000 0.000000 0.000000
    endloop
  endfacet
  facet normal 0.000000 1.000000 0.000000
    outer loop
      vertex -200.000000 0.000000 0.000000
      vertex -300.000000 0.000000 100.000000
      vertex -200.000000 0.000000 100.000000
    endloop
  endfacet
  facet normal 0.000000 1.000000 0.000000
    outer loop
      vertex -300.000000 0.000000 100.000000
      vertex -300.000000 0.000000 200.000000
      vertex -200.000000 0.000000 100.000000
    endloop
  endfacet
  facet normal 0.000000 1.000000 0.000000
    outer loop
      vertex -200.000000 0.000000 100.000000
      vertex -300.000000 0.000000 200.000000
      vertex -200.000000 0.000000 200.000000
    endloop
  endfacet
  facet normal 0.000000 1.000000 0.000000
    outer loop
      vertex -300.000000 0.000000 200.000000
      vertex -300.000000 0.000000 300.000000
      vertex -200.000000 0.000000 200.000000
    endloop
  endfacet
  facet normal 0.000000 1.000000 0.000000
    outer loop
      vertex -200.000000 0.000000 200.000000
      vertex -300.000000 0.000000 300.000000
      vertex -200.000000 0.000000 300.000000
    endloop
  endfacet
  facet normal 0.000000 1.000000 0.000000
    outer loop
      vertex -300.000000 0.000000 300.000000
      vertex -300.000000 0.000000 400.000000
      vertex -200.000000 0.000000 300.000000
    endloop
  endfacet
  facet normal 0.000000 1.000000 0.000000
    outer loop
      vertex -200.000000 0.000000 300.000000
      vertex -300.000000 0.000000 400.000000
      vertex -200.000000 0.000000 400.000000
    endloop
  endfacet
  facet normal 0.000000 1.000000 0.000000
    outer loop
      vertex -300.000000 0.000000 400.000000
      vertex -300.000000 0.000000 500.000000
      vertex -200.000000 0.000000 400.000000
    endloop
  endfacet
  facet normal 0.000000 1.000000 0.000000
    outer loop
      vertex -200.000000 0.000000 400.000000
      vertex -300.000000 0.000000 500.000000
      vertex -200.000000 0.000000 500.000000
    endloop
  endfacet
  facet normal 0.000000 1.000000 0.000000
    outer loop
      vertex -200.000000 0.000000 -500.000000
      vertex -200.000000 0.000000 -400.000000
      vertex -100.000000 0.000000 -500.000000
    endloop
  endfacet
  facet normal 0.000000 1.000000 0.000000
    outer loop
      vertex -100.000000 0.000000 -500.000000
      vertex -200.000000 0.000000 -400.000000
      vertex -100.000000 0.000000 -400.000000
    endloop
  endfacet
  facet normal 0.000000 1.000000 0.000000
    outer loop
      vertex -200.000000 0.000000 -400.000000
      vertex -200.000000 0.000000 -300.000000
      vertex -100.000000 0.000000 -400.000000
    endloop
  endfacet
  facet normal 0.000000 1.000000 0.000000
    outer loop
      vertex -100.000000 0.000000 -400.000000
      vertex -200.000000 0.000000 -300.000000
      vertex -100.000000 0.000000 -300.000000
    endloop
  endfacet
  facet normal 0.000000 1.000000 0.000000
    outer loop
      vertex -200.000000 0.000000 -300.000000
      vertex -200.000000 0.000000 -200.000000
      vertex -100.000000 0.000000 -300.000000
    endloop
  endfacet
  facet normal 0.000000 1.000000 0.000000
    outer loop
      vertex -100.000000 0.000000 -300.000000
      vertex -200.000000 0.000000 -200.000000
      vertex -100.000000 0.000000 -200.000000
    endloop
  endfacet
  facet normal 0.000000 1.000000 0.000000
    outer loop
      vertex -200.000000 0.000000 -200.000000
      vertex -200.000000 0.000000 -100.000000
      vertex -100.000000 0.000000 -200.000000
    endloop
  endfacet
  facet normal 0.000000 1.000000 0.000000
    outer loop
      vertex -100.000000 0.000000 -200.000000
      vertex -200.000000 0.000000 -100.000000
      vertex -100.000000 0.000000 -100.000000
    endloop
  endfacet
  facet normal 0.000000 1.000000 0.000000
    outer loop
      vertex -200.000000 0.000000 -100.000000
      vertex -200.000000 0.000000 0.000000
      vertex -100.000000 0.000000 -100.000000
    endloop
  endfacet
  facet normal 0.000000 1.000000 0.000000
    outer loop
      vertex -100.000000 0.000000 -100.000000
      vertex -200.000000 0.000000 0.000000
      vertex -100.000000 0.000000 0.000000
    endloop
  endfacet
  facet normal 0.000000 1.000000 0.000000
    outer loop
      vertex -200.000000 0.000000 0.000000
      vertex -200.000000 0.000000 100.000000
      vertex -100.000000 0.000000 0.000000
    endloop
  endfacet
  facet normal 0.000000 1.000000 0.000000
    outer loop
      vertex -100.000000 0.000000 0.000000
      vertex -200.000000 0.000000 100.000000
      vertex -100.000000 0.000000 100.000000
    endloop
  endfacet
  facet normal 0.000000 1.000000 0.000000
    outer loop
      vertex -200.000000 0.000000 100.000000
      vertex -200.000000 0.000000 200.000000
      vertex -100.000000 0.000000 100.000000
    endloop
  endfacet
  facet normal 0.000000 1.000000 0.000000
    outer loop
      vertex -100.000000 0.000000 100.000000
      vertex -200.000000 0.000000 200.000000
      vertex -100.000000 0.000000 200.000000
    endloop
  endfacet
  facet normal 0.000000 1.000000 0.000000
    outer loop
      vertex -200.000000 0.000000 200.000000
      vertex -200.000000 0.000000 300.000000
      vertex -100.000000 0.000000 200.000000
    endloop
  endfacet
  facet normal 0.000000 1.000000 0.000000
    outer loop
      vertex -100.000000 0.000000 200.000000
      vertex -200.000000 0.000000 300.000000
      vertex -100.000000 0.000000 300.000000
    endloop
  endfacet
  facet normal 0.000000 1.000000 0.000000
    outer loop
      vertex -200.000000 0.000000 300.000000
      vertex -200.000000 0.000000 400.000000
      vertex -100.000000 0.000000 300.000000
    endloop
  endfacet
  facet normal 0.000000 1.000000 0.000000
    outer loop
      vertex -100.000000 0.000000 300.000000
      vertex -200.000000 0.000000 400.000000
      vertex -100.000000 0.000000 400.000000
    endloop
  endfacet
  facet normal 0.000000 1.000000 0.000000
    outer loop
      vertex -200.000000 0.000000 400.000000
      vertex -200.000000 0.000000 500.000000
      vertex -100.000000 0.000000 400.000000
    endloop
  endfacet
  facet normal 0.000000 1.000000 0.000000
    outer loop
      vertex -100.000000 0.000000 400.000000
      vertex -200.000000 0.000000 500.000000
      vertex -100.000000 0.000000 500.000000
    endloop
  endfacet
  facet normal 0.000000 1.000000 0.000000
    outer loop
      vertex -100.000000 0.000000 -500.000000
      vertex -100.000000 0.000000 -400.000000
      vertex 0.000000 0.000000 -500.000000
    endloop
  endfacet
  facet normal 0.000000 1.000000 0.000000
    outer loop
      vertex 0.000000 0.000000 -500.000000
      vertex -100.000000 0.000000 -400.000000
      vertex 0.000000 0.000000 -400.000000
    endloop
  endfacet
  facet normal 0.000000 1.000000 0.000000
    outer loop
      vertex -100.000000 0.000000 -400.000000
      vertex -100.000000 0.000000 -300.000000
      vertex 0.000000 0.000000 -400.000000
    endloop
  endfacet
  facet normal 0.000000 1.000000 0.000000
    outer loop
      vertex 0.000000 0.000000 -400.000000
      vertex -100.000000 0.000000 -300.000000
      vertex 0.000000 0.000000 -300.000000
    endloop
  endfacet
  facet normal 0.000000 1.000000 0.000000
    outer loop
      vertex -100.000000 0.000000 -300.000000
      vertex -100.000000 0.000000 -200.000000
      vertex 0.000000 0.000000 -300.000000
    endloop
  endfacet
  facet normal 0.000000 1.000000 0.000000
    outer loop
      vertex 0.000000 0.000000 -300.000000
      vertex -100.000000 0.000000 -200.000000
      vertex 0.000000 0.000000 -200.000000
    endloop
  endfacet
  facet normal 0.000000 1.000000 0.000000
    outer loop
      vertex -100.000000 0.000000 -200.000000
      vertex -100.000000 0.000000 -100.000000
      vertex 0.000000 0.000000 -200.000000
    endloop
  endfacet
  facet normal 0.000000 1.000000 0.000000
    outer loop
      vertex 0.000000 0.000000 -200.000000
      vertex -100.000000 0.000000 -100.000000
      vertex 0.000000 0.000000 -100.000000
    endloop
  endfacet
  facet normal 0.000000 1.000000 0.000000
    outer loop
      vertex -100.000000 0.000000 -100.000000
      vertex -100.000000 0.000000 0.000000
      vertex 0.000000 0.000000 -100.000000
    endloop
  endfacet
  facet normal 0.000000 1.000000 0.000000
    outer loop
      vertex 0.000000 0.000000 -100.000000
      vertex -100.000000 0.000000 0.000000
      vertex 0.000000 0.000000 0.000000
    endloop
  endfacet
  facet normal 0.000000 1.000000 0.000000
    outer loop
      vertex -100.000000 0.000000 0.000000
      vertex -100.000000 0.000000 100.000000
      vertex 0.000000 0.000000 0.000000
    endloop
  endfacet
  facet normal 0.000000 1.000000 0.000000
    outer loop
      vertex 0.000000 0.000000 0.000000
      vertex -100.000000 0.000000 100.000000
      vertex 0.000000 0.000000 100.000000
    endloop
  endfacet
  facet normal 0.000000 1.000000 0.000000
    outer loop
      vertex -100.000000 0.000000 100.000000
      vertex -100.000000 0.000000 200.000000
      vertex 0.000000 0.000000 100.000000
    endloop
  endfacet
  facet normal 0.000000 1.000000 0.000000
    outer loop
      vertex 0.000000 0.000000 100.000000
      vertex -100.000000 0.000000 200.000000
      vertex 0.000000 0.000000 200.000000
    endloop
  endfacet
  facet normal 0.000000 1.000000 0.000000
    outer loop
      vertex -100.000000 0.000000 200.000000
      vertex -100.000000 0.000000 300.000000
      vertex 0.000000 0.000000 200.000000
    endloop
  endfacet
  facet normal 0.000000 1.000000 0.000000
    outer loop
      vertex 0.000000 0.000000 200.000000
      vertex -100.000000 0.000000 300.000000
      vertex 0.000000 0.000000 300.000000
    endloop
  endfacet
  facet normal 0.000000 1.000000 0.000000
    outer loop
      vertex -100.000000 0.000000 300.000000
      vertex -100.000000 0.000000 400.000000
      vertex 0.000000 0.000000 300.000000
    endloop
  endfacet
  facet normal 0.000000 1.000000 0.000000
    outer loop
      vertex 0.000000 0.000000 300.000000
      vertex -100.000000 0.000000 400.000000
      vertex 0.000000 0.000000 400.000000
    endloop
  endfacet
  facet normal 0.000000 1.000000 0.000000
    outer loop
      vertex -100.000000 0.000000 400.000000
      vertex -100.000000 0.000000 500.000000
      vertex 0.000000 0.000000 400.000000
    endloop
  endfacet
  facet normal 0.000000 1.000000 0.000000
    outer loop
      vertex 0.000000 0.000000 400.000000
      vertex -100.000000 0.000000 500.000000
      vertex 0.000000 0.000000 500.000000
    endloop
  endfacet
  facet normal 0.000000 1.000000 0.000000
    outer loop
      vertex 0.000000 0.000000 -500.000000
      vertex 0.000000 0.000000 -400.000000
      vertex 100.000000 0.000000 -500.000000
    endloop
  endfacet
  facet normal 0.000000 1.000000 0.000000
    outer loop
      vertex 100.000000 0.000000 -500.000000
      vertex 0.000000 0.000000 -400.000000
      vertex 100.000000 0.000000 -400.000000
    endloop
  endfacet
  facet normal 0.000000 1.000000 0.000000
    outer loop
      vertex 0.000000 0.000000 -400.000000
      vertex 0.000000 0.000000 -300.000000
      vertex 100.000000 0.000000 -400.000000
    endloop
  endfacet
  facet normal 0.000000 1.000000 0.000000
    outer loop
      vertex 100.000000 0.000000 -400.000000
      vertex 0.000000 0.000000 -300.000000
      vertex 100.000000 0.000000 -300.000000
    endloop
  endfacet
  facet normal 0.000000 1.000000 0.000000
    outer loop
      vertex 0.000000 0.000000 -300.000000
      vertex 0.000000 0.000000 -200.000000
      vertex 100.000000 0.000000 -300.000000
    endloop
  endfacet
  facet normal 0.000000 1.000000 0.000000
    outer loop
      vertex 100.000000 0.000000 -300.000000
      vertex 0.000000 0.000000 -200.000000
      vertex 100.000000 0.000000 -200.000000
    endloop
  endfacet
  facet normal 0.000000 1.000000 0.000000
    outer loop
      vertex 0.000000 0.000000 -200.000000
      vertex 0.000000 0.000000 -100.000000
      vertex 100.000000 0.000000 -200.000000
    endloop
  endfacet
  facet normal 0.000000 1.000000 0.000000
    outer loop
      vertex 100.000000 0.000000 -200.000000
      vertex 0.000000 0.000000 -100.000000
      vertex 100.000000 0.000000 -100.000000
    endloop
  endfacet
  facet normal 0.000000 1.000000 0.000000
    outer loop
      vertex 0.000000 0.000000 -100.000000
      vertex 0.000000 0.000000 0.000000
      vertex 100.000000 0.000000 -100.000000
    endloop
  endfacet
  facet normal 0.000000 1.000000 0.000000
    outer loop
      vertex 100.000000 0.000000 -100.000000
      vertex 0.000000 0.000000 0.000000
      vertex 100.000000 0.000000 0.000000
    endloop
  endfacet
  facet normal 0.000000 1.000000 0.000000
    outer loop
      vertex 0.000000 0.000000 0.000000
      vertex 0.000000 0.000000 100.000000
      vertex 100.000000 0.000000 0.000000
    endloop
  endfacet
  facet normal 0.000000 1.000000 0.000000
    outer loop
      vertex 100.000000 0.000000 0.000000
      vertex 0.000000 0.000000 100.000000
      vertex 100.000000 0.000000 100.000000
    endloop
  endfacet
  facet normal 0.000000 1.000000 0.000000
    outer loop
      vertex 0.000000 0.000000 100.000000
      vertex 0.000000 0.000000 200.000000
      vertex 100.000000 0.000000 100.000000
    endloop
  endfacet
  facet normal 0.000000 1.000000 0.000000
    outer loop
      vertex 100.000000 0.000000 100.000000
      vertex 0.000000 0.000000 200.000000
      vertex 100.000000 0.000000 200.000000
    endloop
  endfacet
  facet normal 0.000000 1.000000 0.000000
    outer loop
      vertex 0.000000 0.000000 200.000000
      vertex 0.000000 0.000000 300.000000
      vertex 100.000000 0.000000 200.000000
    endloop
  endfacet
  facet normal 0.000000 1.000000 0.000000
    outer loop
      vertex 100.000000 0.000000 200.000000
      vertex 0.000000 0.000000 300.000000
      vertex 100.000000 0.000000 300.000000
    endloop
  endfacet
  facet normal 0.000000 1.000000 0.000000
    outer loop
      vertex 0.000000 0.000000 300.000000
      vertex 0.000000 0.000000 400.000000
      vertex 100.000000 0.000000 300.000000
    endloop
  endfacet
  facet normal 0.000000 1.000000 0.000000
    outer loop
      vertex 100.000000 0.000000 300.000000
      vertex 0.000000 0.000000 400.000000
      vertex 100.000000 0.000000 400.000000
    endloop
  endfacet
  facet normal 0.000000 1.000000 0.000000
    outer loop
      vertex 0.000000 0.000000 400.000000
      vertex 0.000000 0.000000 500.000000
      vertex 100.000000 0.000000 400.000000
    endloop
  endfacet
  facet normal 0.000000 1.000000 0.000000
    outer loop
      vertex 100.000000 0.000000 400.000000
      vertex 0.000000 0.000000 500.000000
      vertex 100.000000 0.000000 500.000000
    endloop
  endfacet
  facet normal 0.000000 1.000000 0.000000
    outer loop
      vertex 100.000000 0.000000 -500.000000
      vertex 100.000000 0.000000 -400.000000
      vertex 200.000000 0.000000 -500.000000
    endloop
  endfacet
  facet normal 0.000000 1.000000 0.000000
    outer loop
      vertex 200.000000 0.000000 -500.000000
      vertex 100.000000 0.000000 -400.000000
      vertex 200.000000 0.000000 -400.000000
    endloop
  endfacet
  facet normal 0.000000 1.000000 0.000000
    outer loop
      vertex 100.000000 0.000000 -400.000000
      vertex 100.000000 0.000000 -300.000000
      vertex 200.000000 0.000000 -400.000000
    endloop
  endfacet
  facet normal 0.000000 1.000000 0.000000
    outer loop
      vertex 200.000000 0.000000 -400.000000
      vertex 100.000000 0.000000 -300.000000
      vertex 200.000000 0.000000 -300.000000
    endloop
  endfacet
  facet normal 0.000000 1.000000 0.000000
    outer loop
      vertex 100.000000 0.000000 -300.000000
      vertex 100.000000 0.000000 -200.000000
      vertex 200.000000 0.000000 -300.000000
    endloop
  endfacet
  facet normal 0.000000 1.000000 0.000000
    outer loop
      vertex 200.000000 0.000000 -300.000000
      vertex 100.000000 0.000000 -200.000000
      vertex 200.000000 0.000000 -200.000000
    endloop
  endfacet
  facet normal 0.000000 1.000000 0.000000
    outer loop
      vertex 100.000000 0.000000 -200.000000
      vertex 100.000000 0.000000 -100.000000
      vertex 200.000000 0.000000 -200.000000
    endloop
  endfacet
  facet normal 0.000000 1.000000 0.000000
    outer loop
      vertex 200.000000 0.000000 -200.000000
      vertex 100.000000 0.000000 -100.000000
      vertex 200.000000 0.000000 -100.000000
    endloop
  endfacet
  facet normal 0.000000 1.000000 0.000000
    outer loop
      vertex 100.000000 0.000000 -100.000000
      vertex 100.000000 0.000000 0.000000
      vertex 200.000000 0.000000 -100.000000
    endloop
  endfacet
  facet normal 0.000000 1.000000 0.000000
    outer loop
      vertex 200.000000 0.000000 -100.000000
      vertex 100.000000 0.000000 0.000000
      vertex 200.000000 0.000000 0.000000
    endloop
  endfacet
  facet normal 0.000000 1.000000 0.000000
    outer loop
      vertex 100.000000 0.000000 0.000000
      vertex 100.000000 0.000000 100.000000
      vertex 200.000000 0.000000 0.000000
    endloop
  endfacet
  facet normal 0.000000 1.000000 0.000000
    outer loop
      vertex 200.000000 0.000000 0.000000
      vertex 100.000000 0.000000 100.000000
      vertex 200.000000 0.000000 100.000000
    endloop
  endfacet
  facet normal 0.000000 1.000000 0.000000
    outer loop
      vertex 100.000000 0.000000 100.000000
      vertex 100.000000 0.000000 200.000000
      vertex 200.000000 0.000000 100.000000
    endloop
  endfacet
  facet normal 0.000000 1.000000 0.000000
    outer loop
      vertex 200.000000 0.000000 100.000000
      vertex 100.000000 0.000000 200.000000
      vertex 200.000000 0.000000 200.000000
    endloop
  endfacet
  facet normal 0.000000 1.000000 0.000000
    outer loop
      vertex 100.000000 0.000000 200.000000
      vertex 100.000000 0.000000 300.000000
      vertex 200.000000 0.000000 200.000000
    endloop
  endfacet
  facet normal 0.000000 1.000000 0.000000
    outer loop
      vertex 200.000000 0.000000 200.000000
      vertex 100.000000 0.000000 300.000000
      vertex 200.000000 0.000000 300.000000
    endloop
  endfacet
  facet normal 0.000000 1.000000 0.000000
    outer loop
      vertex 100.000000 0.000000 300.000000
      vertex 100.000000 0.000000 400.000000
      vertex 200.000000 0.000000 300.000000
    endloop
  endfacet
  facet normal 0.000000 1.000000 0.000000
    outer loop
      vertex 200.000000 0.000000 300.000000
      vertex 100.000000 0.000000 400.000000
      vertex 200.000000 0.000000 400.000000
    endloop
  endfacet
  facet normal 0.000000 1.000000 0.000000
    outer loop
      vertex 100.000000 0.000000 400.000000
      vertex 100.000000 0.000000 500.000000
      vertex 200.000000 0.000000 400.000000
    endloop
  endfacet
  facet normal 0.000000 1.000000 0.000000
    outer loop
      vertex 200.000000 0.000000 400.000000
      vertex 100.000000 0.000000 500.000000
      vertex 200.000000 0.000000 500.000000
    endloop
  endfacet
  facet normal 0.000000 1.000000 0.000000
    outer loop
      vertex 200.000000 0.000000 -500.000000
      vertex 200.000000 0.000000 -400.000000
      vertex 300.000000 0.000000 -500.000000
    endloop
  endfacet
  facet normal 0.000000 1.000000 0.000000
    outer loop
      vertex 300.000000 0.000000 -500.000000
      vertex 200.000000 0.000000 -400.000000
      vertex 300.000000 0.000000 -400.000000
    endloop
  endfacet
  facet normal 0.000000 1.000000 0.000000
    outer loop
      vertex 200.000000 0.000000 -400.000000
      vertex 200.000000 0.000000 -300.000000
      vertex 300.000000 0.000000 -400.000000
    endloop
  endfacet
  facet normal 0.000000 1.000000 0.000000
    outer loop
      vertex 300.000000 0.000000 -400.000000
      vertex 200.000000 0.000000 -300.000000
      vertex 300.000000 0.000000 -300.000000
    endloop
  endfacet
  facet normal 0.000000 1.000000 0.000000
    outer loop
      vertex 200.000000 0.000000 -300.000000
      vertex 200.000000 0.000000 -200.000000
      vertex 300.000000 0.000000 -300.000000
    endloop
  endfacet
  facet normal 0.000000 1.000000 0.000000
    outer loop
      vertex 300.000000 0.000000 -300.000000
      vertex 200.000000 0.000000 -200.000000
      vertex 300.000000 0.000000 -200.000000
    endloop
  endfacet
  facet normal 0.000000 1.000000 0.000000
    outer loop
      vertex 200.000000 0.000000 -200.000000
      vertex 200.000000 0.000000 -100.000000
      vertex 300.000000 0.000000 -200.000000
    endloop
  endfacet
  facet normal 0.000000 1.000000 0.000000
    outer loop
      vertex 300.000000 0.000000 -200.000000
      vertex 200.000000 0.000000 -100.000000
      vertex 300.000000 0.000000 -100.000000
    endloop
  endfacet
  facet normal 0.000000 1.000000 0.000000
    outer loop
      vertex 200.000000 0.000000 -100.000000
      vertex 200.000000 0.000000 0.000000
      vertex 300.000000 0.000000 -100.000000
    endloop
  endfacet
  facet normal 0.000000 1.000000 0.000000
    outer loop
      vertex 300.000000 0.000000 -100.000000
      vertex 200.000000 0.000000 0.000000
      vertex 300.000000 0.000000 0.000000
    endloop
  endfacet
  facet normal 0.000000 1.000000 0.000000
    outer loop
      vertex 200.000000 0.000000 0.000000
      vertex 200.000000 0.000000 100.000000
      vertex 300.000000 0.000000 0.000000
    endloop
  endfacet
  facet normal 0.000000 1.000000 0.000000
    outer loop
      vertex 300.000000 0.000000 0.000000
      vertex 200.000000 0.000000 100.000000
      vertex 300.000000 0.000000 100.000000
    endloop
  endfacet
  facet normal 0.000000 1.000000 0.000000
    outer loop
      vertex 200.000000 0.000000 100.000000
      vertex 200.000000 0.000000 200.000000
      vertex 300.000000 0.000000 100.000000
    endloop
  endfacet
  facet normal 0.000000 1.000000 0.000000
    outer loop
      vertex 300.000000 0.000000 100.000000
      vertex 200.000000 0.000000 200.000000
      vertex 300.000000 0.000000 200.000000
    endloop
  endfacet
  facet normal 0.000000 1.000000 0.000000
    outer loop
      vertex 200.000000 0.000000 200.000000
      vertex 200.000000 0.000000 300.000000
      vertex 300.000000 0.000000 200.000000
    endloop
  endfacet
  facet normal 0.000000 1.000000 0.000000
    outer loop
      vertex 300.000000 0.000000 200.000000
      vertex 200.000000 0.000000 300.000000
      vertex 300.000000 0.000000 300.000000
    endloop
  endfacet
  facet normal 0.000000 1.000000 0.000000
    outer loop
      vertex 200.000000 0.000000 300.000000
      vertex 200.000000 0.000000 400.000000
      vertex 300.000000 0.000000 300.000000
    endloop
  endfacet
  facet normal 0.000000 1.000000 0.000000
    outer loop
      vertex 300.000000 0.000000 300.000000
      vertex 200.000000 0.000000 400.000000
      vertex 300.000000 0.000000 400.000000
    endloop
  endfacet
  facet normal 0.000000 1.000000 0.000000
    outer loop
      vertex 200.000000 0.000000 400.000000
      vertex 200.000000 0.000000 500.000000
      vertex 300.000000 0.000000 400.000000
    endloop
  endfacet
  facet normal 0.000000 1.000000 0.000000
    outer loop
      vertex 300.000000 0.000000 400.000000
      vertex 200.000000 0.000000 500.000000
      vertex 300.000000 0.000000 500.000000
    endloop
  endfacet
  facet normal 0.000000 1.000000 0.000000
    outer loop
      vertex 300.000000 0.000000 -500.000000
      vertex 300.000000 0.000000 -400.000000
      vertex 400.000000 0.000000 -500.000000
    endloop
  endfacet
  facet normal 0.000000 1.000000 0.000000
    outer loop
      vertex 400.000000 0.000000 -500.000000
      vertex 300.000000 0.000000 -400.000000
      vertex 400.000000 0.000000 -400.000000
    endloop
  endfacet
  facet normal 0.000000 1.000000 0.000000
    outer loop
      vertex 300.000000 0.000000 -400.000000
      vertex 300.000000 0.000000 -300.000000
      vertex 400.000000 0.000000 -400.000000
    endloop
  endfacet
  facet normal 0.000000 1.000000 0.000000
    outer loop
      vertex 400.000000 0.000000 -400.000000
      vertex 300.000000 0.000000 -300.000000
      vertex 400.000000 0.000000 -300.000000
    endloop
  endfacet
  facet normal 0.000000 1.000000 0.000000
    outer loop
      vertex 300.000000 0.000000 -300.000000
      vertex 300.000000 0.000000 -200.000000
      vertex 400.000000 0.000000 -300.000000
    endloop
  endfacet
  facet normal 0.000000 1.000000 0.000000
    outer loop
      vertex 400.000000 0.000000 -300.000000
      vertex 300.000000 0.000000 -200.000000
      vertex 400.000000 0.000000 -200.000000
    endloop
  endfacet
  facet normal 0.000000 1.000000 0.000000
    outer loop
      vertex 300.000000 0.000000 -200.000000
      vertex 300.000000 0.000000 -100.000000
      vertex 400.000000 0.000000 -200.000000
    endloop
  endfacet
  facet normal 0.000000 1.000000 0.000000
    outer loop
      vertex 400.000000 0.000000 -200.000000
      vertex 300.000000 0.000000 -100.000000
      vertex 400.000000 0.000000 -100.000000
    endloop
  endfacet
  facet normal 0.000000 1.000000 0.000000
    outer loop
      vertex 300.000000 0.000000 -100.000000
      vertex 300.000000 0.000000 0.000000
      vertex 400.000000 0.000000 -100.000000
    endloop
  endfacet
  facet normal 0.000000 1.000000 0.000000
    outer loop
      vertex 400.000000 0.000000 -100.000000
      vertex 300.000000 0.000000 0.000000
      vertex 400.000000 0.000000 0.000000
    endloop
  endfacet
  facet normal 0.000000 1.000000 0.000000
    outer loop
      vertex 300.000000 0.000000 0.000000
      vertex 300.000000 0.000000 100.000000
      vertex 400.000000 0.000000 0.000000
    endloop
  endfacet
  facet normal 0.000000 1.000000 0.000000
    outer loop
      vertex 400.000000 0.000000 0.000000
      vertex 300.000000 0.000000 100.000000
      vertex 400.000000 0.000000 100.000000
    endloop
  endfacet
  facet normal 0.000000 1.000000 0.000000
    outer loop
      vertex 300.000000 0.000000 100.000000
      vertex 300.000000 0.000000 200.000000
      vertex 400.000000 0.000000 100.000000
    endloop
  endfacet
  facet normal 0.000000 1.000000 0.000000
    outer loop
      vertex 400.000000 0.000000 100.000000
      vertex 300.000000 0.000000 200.000000
      vertex 400.000000 0.000000 200.000000
    endloop
  endfacet
  facet normal 0.000000 1.000000 0.000000
    outer loop
      vertex 300.000000 0.000000 200.000000
      vertex 300.000000 0.000000 300.000000
      vertex 400.000000 0.000000 200.000000
    endloop
  endfacet
  facet normal 0.000000 1.000000 0.000000
    outer loop
      vertex 400.000000 0.000000 200.000000
      vertex 300.000000 0.000000 300.000000
      vertex 400.000000 0.000000 300.000000
    endloop
  endfacet
  facet normal 0.000000 1.000000 0.000000
    outer loop
      vertex 300.000000 0.000000 300.000000
      vertex 300.000000 0.000000 400.000000
      vertex 400.000000 0.000000 300.000000
    endloop
  endfacet
  facet normal 0.000000 1.000000 0.000000
    outer loop
      vertex 400.000000 0.000000 300.000000
      vertex 300.000000 0.000000 400.000000
      vertex 400.000000 0.000000 400.000000
    endloop
  endfacet
  facet normal 0.000000 1.000000 0.000000
    outer loop
      vertex 300.000000 0.000000 400.000000
      vertex 300.000000 0.000000 500.000000
      vertex 400.000000 0.000000 400.000000
    endloop
  endfacet
  facet normal 0.000000 1.000000 0.000000
    outer loop
      vertex 400.000000 0.000000 400.000000
      vertex 300.000000 0.000000 500.000000
      vertex 400.000000 0.000000 500.000000
    endloop
  endfacet
  facet normal 0.000000 1.000000 0.000000
    outer loop
      vertex 400.000000 0.000000 -500.000000
      vertex 400.000000 0.000000 -400.000000
      vertex 500.000000 0.000000 -500.000000
    endloop
  endfacet
  facet normal 0.000000 1.000000 0.000000
    outer loop
      vertex 500.000000 0.000000 -500.000000
      vertex 400.000000 0.000000 -400.000000
      vertex 500.000000 0.000000 -400.000000
    endloop
  endfacet
  facet normal 0.000000 1.000000 0.000000
    outer loop
      vertex 400.000000 0.000000 -400.000000
      vertex 400.000000 0.000000 -300.000000
      vertex 500.000000 0.000000 -400.000000
    endloop
  endfacet
  facet normal 0.000000 1.000000 0.000000
    outer loop
      vertex 500.000000 0.000000 -400.000000
      vertex 400.000000 0.000000 -300.000000
      vertex 500.000000 0.000000 -300.000000
    endloop
  endfacet
  facet normal 0.000000 1.000000 0.000000
    outer loop
      vertex 400.000000 0.000000 -300.000000
      vertex 400.000000 0.000000 -200.000000
      vertex 500.000000 0.000000 -300.000000
    endloop
  endfacet
  facet normal 0.000000 1.000000 0.000000
    outer loop
      vertex 500.000000 0.000000 -300.000000
      vertex 400.000000 0.000000 -200.000000
      vertex 500.000000 0.000000 -200.000000
    endloop
  endfacet
  facet normal 0.000000 1.000000 0.000000
    outer loop
      vertex 400.000000 0.000000 -200.000000
      vertex 400.000000 0.000000 -100.000000
      vertex 500.000000 0.000000 -200.000000
    endloop
  endfacet
  facet normal 0.000000 1.000000 0.000000
    outer loop
      vertex 500.000000 0.000000 -200.000000
      vertex 400.000000 0.000000 -100.000000
      vertex 500.000000 0.000000 -100.000000
    endloop
  endfacet
  facet normal 0.000000 1.000000 0.000000
    outer loop
      vertex 400.000000 0.000000 -100.000000
      vertex 400.000000 0.000000 0.000000
      vertex 500.000000 0.000000 -100.000000
    endloop
  endfacet
  facet normal 0.000000 1.000000 0.000000
    outer loop
      vertex 500.000000 0.000000 -100.000000
      vertex 400.000000 0.000000 0.000000
      vertex 500.000000 0.000000 0.000000
    endloop
  endfacet
  facet normal 0.000000 1.000000 0.000000
    outer loop
      vertex 400.000000 0.000000 0.000000
      vertex 400.000000 0.000000 100.000000
      vertex 500.000000 0.000000 0.000000
    endloop
  endfacet
  facet normal 0.000000 1.000000 0.000000
    outer loop
      vertex 500.000000 0.000000 0.000000
      vertex 400.000000 0.000000 100.000000
      vertex 500.000000 0.000000 100.000000
    endloop
  endfacet
  facet normal 0.000000 1.000000 0.000000
    outer loop
      vertex 400.000000 0.000000 100.000000
      vertex 400.000000 0.000000 200.000000
      vertex 500.000000 0.000000 100.000000
    endloop
  endfacet
  facet normal 0.000000 1.000000 0.000000
    outer loop
      vertex 500.000000 0.000000 100.000000
      vertex 400.000000 0.000000 200.000000
      vertex 500.000000 0.000000 200.000000
    endloop
  endfacet
  facet normal 0.000000 1.000000 0.000000
    outer loop
      vertex 400.000000 0.000000 200.000000
      vertex 400.000000 0.000000 300.000000
      vertex 500.000000 0.000000 200.000000
    endloop
  endfacet
  facet normal 0.000000 1.000000 0.000000
    outer loop
      vertex 500.000000 0.000000 200.000000
      vertex 400.000000 0.000000 300.000000
      vertex 500.000000 0.000000 300.000000
    endloop
  endfacet
  facet normal 0.000000 1.000000 0.000000
    outer loop
      vertex 400.000000 0.000000 300.000000
      vertex 400.000000 0.000000 400.000000
      vertex 500.000000 0.000000 300.000000
    endloop
  endfacet
  facet normal 0.000000 1.000000 0.000000
    outer loop
      vertex 500.000000 0.000000 300.000000
      vertex 400.000000 0.000000 400.000000
      vertex 500.000000 0.000000 400.000000
    endloop
  endfacet
  facet normal 0.000000 1.000000 0.000000
    outer loop
      vertex 400.000000 0.000000 400.000000
      vertex 400.000000 0.000000 500.000000
      vertex 500.000000 0.000000 400.000000
    endloop
  endfacet
  facet normal 0.000000 1.000000 0.000000
    outer loop
      vertex 500.000000 0.000000 400.000000
      vertex 400.000000 0.000000 500.000000
      vertex 500.000000 0.000000 500.000000
    endloop
  endfacet
endsolid subd_plate
